<svg width="275" height="200" viewBox="0 0 275 200" fill="none" xmlns="http://www.w3.org/2000/svg">
<g id="20944526 (1) 1">
<rect width="275" height="200" fill="white"/>
<g id="g16">
<g id="g18">
<path id="path30" d="M162.928 179.537C162.547 179.537 162.17 179.537 161.794 179.536C162.777 179.326 163.681 178.823 164.449 178.102C201.547 170.951 221.949 147.39 232.954 126.655C233.373 126.697 233.798 126.725 234.223 126.739C237.538 144.811 235.45 171.023 212.057 175.732C196.999 178.764 178.196 179.537 162.928 179.537ZM97.2932 176.921C72.7687 174.553 43.1247 169.065 30.8049 156.388C8.11541 133.04 16.6559 109.764 34.0291 103.17C51.4022 96.5757 54.3655 89.7186 45.0173 80.4688C35.6691 71.2194 23.7966 52.2315 43.5097 33.1515C48.6909 28.1358 54.0644 26.3321 59.4908 26.3321C66.4433 26.3321 73.4827 29.2933 80.3172 32.2533C87.1513 35.2145 93.7811 38.1745 99.9126 38.1745C101.072 38.1745 102.213 38.0691 103.336 37.8376C116.591 35.0994 115.924 27.4836 124.647 27.4836C127.519 27.4836 131.408 28.3091 137.147 30.4061C140.52 31.6388 143.294 32.1685 145.63 32.1685C159.334 32.1685 157.92 13.8994 173.836 11.9915C174.559 11.9042 175.251 11.863 175.914 11.863C182.764 11.863 186.577 16.2691 190.028 20.6752C192.992 24.4606 195.692 28.2461 199.82 29.2376C193.511 33.1745 189.258 40.5891 189.258 49.086C189.258 51.343 189.558 53.5248 190.118 55.5842C179.628 66.3624 172.243 77.8703 167.112 89.3319C166.94 81.5886 166.683 74.5988 166.314 69.023C166.109 65.9103 164.194 63.4315 161.759 63.12C152.759 61.9709 125.391 59.3988 109.179 59.3988C106.479 59.3988 104.09 59.4703 102.145 59.6315C99.6884 59.8351 97.7633 62.4036 97.7022 65.5442C97.3292 84.7538 96.119 151.013 96.6967 174.495C96.7187 175.389 96.9348 176.219 97.2932 176.921V176.921ZM209.497 116.887C211.191 113.642 212.738 110.417 214.156 107.213C214.438 109.335 214.987 111.362 215.766 113.253C213.799 114.424 211.711 115.636 209.497 116.887ZM221.919 85.9544C224.356 77.6206 225.984 69.7479 227.058 62.6509C229.628 58.857 231.147 54.166 231.147 49.086C231.147 45.4582 230.371 42.0279 228.992 38.9818C229.013 36.697 228.979 34.7188 228.922 33.0909C228.86 31.2994 227.096 29.6 225.621 29.6C225.343 29.6 225.074 29.6606 224.831 29.7927C224.167 30.1515 223.508 30.5139 222.856 30.8776C219.608 28.1879 215.619 26.5079 211.281 26.2679C218.644 22.4388 225.467 20.4291 231.514 20.4291C240.618 20.4291 247.969 24.9818 252.782 34.7442C260.248 49.8848 258.009 69.7854 244.07 83.3647C241.296 81.8846 238.178 81.0539 234.881 81.0539C229.987 81.0539 225.484 82.8851 221.919 85.9544" fill="url(#paint0_linear_3_48)"/>
</g>
</g>
<path id="path32" d="M59.6073 68.1891C57.9415 81.0296 51.0444 156.189 114.532 175.918C114.532 175.918 130.749 127.713 61.2271 67.48C60.6189 66.9527 59.7162 67.3491 59.6073 68.1891Z" fill="#91B3FA"/>
<path id="path34" d="M65.6561 79.5461C66.5347 83.8452 67.5877 88.1105 68.7146 92.3451C69.8458 96.5799 71.077 100.783 72.3997 104.95C75.0516 113.282 78.0737 121.478 81.5752 129.423C85.0791 137.362 89.0566 145.068 93.7246 152.25C94.8922 154.044 96.0986 155.807 97.3634 157.52C98.6254 159.234 99.9245 160.915 101.292 162.53C102.657 164.143 104.06 165.721 105.536 167.213C107.01 168.708 108.536 170.138 110.118 171.491L110.12 171.492C110.306 171.652 110.339 171.945 110.193 172.148C110.048 172.35 109.779 172.387 109.593 172.228L109.591 172.225C107.994 170.846 106.455 169.389 104.971 167.869C103.486 166.352 102.076 164.75 100.705 163.113C99.3325 161.476 98.0303 159.773 96.7664 158.039C95.4999 156.305 94.2932 154.522 93.1265 152.71C88.462 145.456 84.5044 137.695 81.0257 129.709C77.5495 121.718 74.5587 113.486 71.9403 105.123C70.6344 100.939 69.4207 96.7221 68.3071 92.4734C67.1975 88.2229 66.164 83.9518 65.3013 79.6273C65.2801 79.5205 65.3421 79.4151 65.4399 79.3919C65.5375 79.3687 65.6337 79.436 65.6553 79.5422L65.6561 79.5461" fill="#BDD0FB"/>
<path id="path36" d="M160.273 174.143C160.273 174.143 132.578 79.6509 224.831 29.7927C226.369 28.9612 228.849 30.9612 228.922 33.0909C229.608 52.9103 227.071 124.356 160.273 174.143" fill="#BDD0FB"/>
<path id="path38" d="M216.762 55.6703C212.54 64.2364 208.298 72.7903 204.018 81.3231L200.8 87.7181L197.554 94.096L194.289 100.462C193.201 102.584 192.091 104.693 190.992 106.809C186.578 115.26 182.164 123.713 177.614 132.079C173.079 140.453 168.492 148.799 163.676 156.988C163.628 157.069 163.53 157.092 163.456 157.04C163.382 156.989 163.361 156.885 163.406 156.805V156.804L166.866 150.565L170.276 144.292C171.412 142.202 172.528 140.097 173.656 138.001L175.342 134.853L177.011 131.695L183.669 119.046C185.871 114.82 188.082 110.598 190.266 106.36L203.399 80.9483C207.774 72.4764 212.148 64.0012 216.463 55.4921C216.509 55.4024 216.612 55.3685 216.694 55.4182C216.777 55.4679 216.807 55.5806 216.762 55.6703" fill="#91B3FA"/>
<path id="path40" d="M48.5713 139.557C54.9734 139.045 92.3518 137.732 100.023 176.119C100.023 176.119 75.6634 183.955 48.1681 140.492C47.9275 140.111 48.153 139.591 48.5713 139.557Z" fill="#BDD0FB"/>
<path id="path42" d="M54.0638 143.272C58.1484 144.607 62.1471 146.202 66.0921 147.954C70.0329 149.713 73.907 151.657 77.6763 153.829C81.443 156.004 85.1063 158.41 88.5651 161.149C90.2853 162.531 91.9703 163.971 93.5582 165.539C95.1432 167.11 96.6511 168.779 98.0392 170.571C98.1917 170.767 98.169 171.062 97.9887 171.228C97.8083 171.395 97.5383 171.37 97.3857 171.173L97.3832 171.17L97.3795 171.165C96.0373 169.399 94.5712 167.744 93.0239 166.181C91.4736 164.618 89.8214 163.178 88.1314 161.793C84.7322 159.046 81.1157 156.617 77.389 154.415C73.6594 152.216 69.818 150.238 65.9061 148.442C61.9924 146.658 58.0109 145.022 53.9626 143.652L53.9581 143.65C53.8624 143.618 53.809 143.507 53.8387 143.402C53.8681 143.299 53.9687 143.241 54.0638 143.272" fill="#91B3FA"/>
<path id="path44" d="M162.3 178.495C160.617 178.785 159.208 177.108 159.602 175.299C161.774 165.322 170.257 137.72 199.507 122.33C224.208 109.333 236.469 99.7286 241.759 94.9483C242.877 93.9373 244.529 95.0695 244.18 96.6066C240.326 113.563 223.321 167.96 162.3 178.495Z" fill="#91B3FA"/>
<path id="path46" d="M161.481 176.122C161.388 176.122 161.293 176.088 161.214 176.021C161.03 175.859 161 175.566 161.147 175.365C161.212 175.275 167.764 166.364 178.372 155.136C188.163 144.771 203.518 130.251 221.055 119.936C221.262 119.814 221.522 119.898 221.633 120.125C221.746 120.352 221.668 120.635 221.46 120.757C204.015 131.019 188.729 145.475 178.978 155.795C168.406 166.984 161.88 175.858 161.816 175.947C161.731 176.062 161.607 176.122 161.481 176.122Z" fill="#BDD0FB"/>
<path id="path48" d="M153.502 169.789C164.634 164.389 209.19 143.805 241.621 143.77C243.937 143.767 245.509 146.856 243.87 148.728C234.367 159.601 205.449 194.805 153.433 172.316C152.432 171.884 152.492 170.28 153.502 169.789" fill="#BDD0FB"/>
<path id="path50" d="M154.76 171.554C154.527 171.554 154.336 171.349 154.332 171.093C154.33 170.836 154.519 170.624 154.756 170.621C179.572 170.276 198.248 165.35 209.546 161.278C221.768 156.872 228.197 152.503 228.26 152.459C228.46 152.322 228.724 152.388 228.85 152.606C228.976 152.823 228.916 153.112 228.716 153.248C228.651 153.293 222.135 157.722 209.813 162.164C198.459 166.257 179.692 171.208 154.766 171.554H154.76" fill="#91B3FA"/>
<path id="path66" d="M144.323 179.964C127.604 179.964 107.233 179.35 100.27 179.059C99.0212 179.007 97.9316 178.17 97.2932 176.921C96.9348 176.219 96.7187 175.389 96.6967 174.495C96.119 151.013 97.3292 84.7538 97.7022 65.5443C97.7633 62.4036 99.6885 59.8352 102.145 59.6315C104.09 59.4703 106.479 59.3988 109.179 59.3988C125.391 59.3988 152.759 61.9709 161.759 63.12C164.194 63.4315 166.109 65.9103 166.314 69.023C166.683 74.5988 166.94 81.5886 167.112 89.3319C167.532 108.249 167.448 131.65 167.269 149.822C167.267 150.15 167.263 150.474 167.26 150.798C167.247 152.133 167.232 153.441 167.218 154.714C167.14 161.655 167.052 167.589 166.982 171.874C166.941 174.429 165.956 176.687 164.449 178.102C163.681 178.823 162.777 179.326 161.794 179.536C161.541 179.59 161.281 179.624 161.019 179.639C156.64 179.873 150.752 179.964 144.323 179.964V179.964ZM110.982 66.3139C109 66.3139 107.267 66.3576 105.868 66.4558C103.765 66.6012 102.094 68.7539 102.004 71.4376C101.485 86.9428 99.8481 138.524 100.368 157.596C100.443 160.384 102.165 162.639 104.347 162.801C110.692 163.275 127.847 164.153 142.018 164.153C147.912 164.153 153.29 164.001 157.161 163.606C159.533 163.362 161.396 160.914 161.523 157.88C162.192 142.063 164.109 94.0337 163.611 75.1733C163.531 72.1649 161.706 69.7079 159.357 69.4388C150.851 68.4643 124.85 66.3139 110.982 66.3139V66.3139ZM123.836 61.8497C123.321 61.8497 122.826 61.8594 122.359 61.8812C121.893 61.9018 121.527 62.3939 121.527 62.9879C121.527 63.577 121.887 64.0642 122.348 64.0945C124.626 64.2461 131.039 64.6776 133.906 64.8897C133.923 64.8909 133.941 64.8921 133.958 64.8921C134.498 64.8921 134.911 64.2618 134.808 63.5733L134.789 63.4521C134.717 62.9685 134.401 62.6036 134.017 62.5588C132.313 62.36 127.586 61.8497 123.836 61.8497" fill="url(#paint1_linear_3_48)"/>
<path id="path82" d="M142.018 164.153C127.847 164.153 110.692 163.275 104.347 162.801C102.165 162.639 100.443 160.384 100.368 157.596C99.8481 138.524 101.485 86.9428 102.004 71.4376C102.094 68.7539 103.765 66.6012 105.868 66.4558C107.267 66.3576 109 66.314 110.982 66.314C124.85 66.314 150.851 68.4643 159.357 69.4388C161.705 69.7079 163.531 72.1649 163.611 75.1733C164.109 94.0337 162.192 142.063 161.523 157.88C161.395 160.914 159.533 163.362 157.161 163.606C153.29 164.001 147.912 164.153 142.018 164.153V164.153ZM109.152 96.221C108.723 96.221 108.308 96.3985 107.992 96.7212C107.638 97.0821 107.444 97.5899 107.455 98.1177C107.784 113.688 106.767 134.701 130.545 150.859C130.82 151.045 131.132 151.139 131.445 151.139C131.693 151.139 131.941 151.081 132.171 150.961C136.942 148.496 159.947 134.53 156.289 95.985C156.203 95.0807 155.528 94.3765 154.695 94.3266C150.673 94.0853 139.085 92.905 132.094 87.2053C131.783 86.9519 131.359 86.7496 130.977 86.7496C130.744 86.7496 130.528 86.8249 130.362 87.0092C124.564 93.4806 115.932 96.2875 110.582 96.2875C110.131 96.2875 109.704 96.2676 109.304 96.2284C109.253 96.2234 109.203 96.221 109.152 96.221" fill="url(#paint2_linear_3_48)"/>
<path id="path98" d="M133.958 64.8921C133.941 64.8921 133.923 64.8909 133.906 64.8897C131.039 64.6776 124.626 64.2461 122.348 64.0945C121.887 64.0642 121.527 63.577 121.527 62.9879C121.527 62.3939 121.893 61.9018 122.359 61.8812C122.826 61.8594 123.321 61.8497 123.836 61.8497C127.586 61.8497 132.313 62.36 134.017 62.5588C134.401 62.6036 134.717 62.9685 134.789 63.4521L134.808 63.5733C134.911 64.2618 134.498 64.8921 133.958 64.8921" fill="url(#paint3_linear_3_48)"/>
<path id="path114" d="M131.446 151.139C131.132 151.139 130.82 151.045 130.546 150.859C106.767 134.701 107.784 113.688 107.455 98.1177C107.444 97.5899 107.638 97.0821 107.992 96.7212C108.308 96.3986 108.723 96.221 109.152 96.221C109.203 96.221 109.253 96.2234 109.304 96.2284C109.704 96.2676 110.131 96.2875 110.582 96.2875C115.932 96.2875 124.564 93.4806 130.362 87.0092C130.528 86.8249 130.745 86.7496 130.977 86.7496C131.359 86.7496 131.783 86.9519 132.095 87.2053C139.086 92.905 150.673 94.0853 154.696 94.3266C155.528 94.3765 156.203 95.0807 156.289 95.985C159.947 134.53 136.942 148.496 132.171 150.961C131.941 151.081 131.693 151.139 131.446 151.139V151.139ZM131.288 89.8587C131.101 89.8587 130.916 89.9319 130.769 90.0753C124.596 96.1095 116.182 98.8104 110.577 98.8104C110.365 98.8104 110.167 98.9008 110.019 99.0653C109.872 99.2286 109.793 99.4445 109.797 99.6736L109.813 100.666C109.933 108.128 110.07 116.587 112.857 124.91C115.98 134.238 121.95 141.876 131.107 148.262C131.234 148.352 131.381 148.396 131.528 148.396C131.65 148.396 131.771 148.365 131.882 148.303C134.271 146.964 140.383 143.035 145.537 135.495C152.433 125.405 155.315 112.634 154.102 97.5353C154.068 97.1183 153.767 96.793 153.385 96.7624C148.207 96.3461 138.507 94.9142 131.718 90.0002C131.587 89.9053 131.437 89.8587 131.288 89.8587V89.8587ZM131.528 147.675C131.506 147.675 131.483 147.668 131.463 147.655C122.432 141.358 116.549 133.836 113.478 124.663C110.729 116.453 110.593 108.059 110.474 100.653L110.458 99.6601C110.457 99.617 110.475 99.5876 110.491 99.5706C110.504 99.5561 110.532 99.5316 110.582 99.5316C116.308 99.5316 124.907 96.7736 131.21 90.6125C131.232 90.5907 131.26 90.5795 131.288 90.5795C131.31 90.5795 131.332 90.5868 131.352 90.6013C138.267 95.6061 148.093 97.0602 153.336 97.4815C153.393 97.4863 153.438 97.5353 153.443 97.5983C154.641 112.515 151.803 125.12 145.007 135.064C139.937 142.482 133.928 146.345 131.58 147.662C131.565 147.67 131.546 147.675 131.528 147.675" fill="url(#paint4_linear_3_48)"/>
<path id="path130" d="M131.528 148.396C131.381 148.396 131.234 148.352 131.107 148.262C121.95 141.876 115.98 134.238 112.857 124.91C110.07 116.587 109.933 108.128 109.813 100.666L109.797 99.6736C109.793 99.4445 109.872 99.2286 110.019 99.0653C110.167 98.9008 110.365 98.8104 110.577 98.8104C116.182 98.8104 124.596 96.1095 130.769 90.0753C130.916 89.9319 131.101 89.8587 131.288 89.8587C131.437 89.8587 131.587 89.9053 131.718 90.0002C138.507 94.9142 148.207 96.3461 153.384 96.7624C153.767 96.793 154.068 97.1183 154.102 97.5353C155.314 112.634 152.433 125.405 145.537 135.495C140.383 143.035 134.271 146.964 131.882 148.303C131.771 148.365 131.65 148.396 131.528 148.396ZM131.288 90.5795C131.26 90.5795 131.232 90.5907 131.21 90.6125C124.907 96.7736 116.308 99.5316 110.582 99.5316C110.532 99.5316 110.504 99.5561 110.491 99.5706C110.475 99.5876 110.457 99.617 110.458 99.6601L110.474 100.653C110.593 108.059 110.729 116.453 113.478 124.663C116.549 133.836 122.432 141.358 131.463 147.655C131.483 147.668 131.506 147.675 131.528 147.675C131.546 147.675 131.564 147.67 131.58 147.662C133.928 146.345 139.937 142.482 145.007 135.064C151.803 125.12 154.641 112.515 153.443 97.5983C153.438 97.5353 153.393 97.4863 153.336 97.4815C148.093 97.0602 138.267 95.6061 131.352 90.6013C131.332 90.5868 131.31 90.5795 131.288 90.5795" fill="url(#paint5_linear_3_48)"/>
<path id="secure" d="M119.067 111.472L131.246 138.19L146.902 100.238L130.64 119.88L119.067 111.472Z" fill="url(#paint6_linear_3_48)"/>
<path id="path148" d="M127.304 179.958C125.614 180.485 123.797 180.196 122.317 179.165C120.836 178.132 119.831 176.455 119.56 174.56L118.876 169.487C118.771 168.712 119.262 167.993 119.972 167.878C120.682 167.762 121.343 168.299 121.448 169.074L122.131 174.136C122.285 175.213 122.863 176.179 123.716 176.773C124.569 177.369 125.615 177.535 126.588 177.23C129.029 176.467 130.447 173.679 129.747 171.016L88.1483 12.6739C87.9506 11.92 88.3498 11.1345 89.0399 10.9188C89.7301 10.703 90.4501 11.1394 90.648 11.8921L132.245 170.234C133.341 174.401 131.124 178.762 127.304 179.958" fill="#7D97F4"/>
<path id="path164" d="M34.592 98.3931C47.4707 92.8073 60.0722 91.795 72.4491 94.4874L93.382 26.16C93.382 26.16 42.2038 37.9188 34.592 98.3931" fill="url(#paint7_linear_3_48)"/>
<path id="path180" d="M178.007 53.5552C164.371 56.2582 153.191 62.6813 144 72.1176L93.0695 26.2582C93.0695 26.2582 142.188 6.65937 178.007 53.5552Z" fill="url(#paint8_linear_3_48)"/>
<path id="path196" d="M93.181 26.0388C93.181 26.0388 64.8832 36.7297 72.6053 94.4385L76.7151 91.7229C95.5293 79.2904 117.046 72.5636 139.04 72.2376L143.844 72.1661C122.374 18.7552 93.181 26.0388 93.181 26.0388" fill="url(#paint9_linear_3_48)"/>
<path id="path212" d="M95.9585 25.9079L90.7617 27.5321C90.6437 27.5697 90.5207 27.4945 90.4868 27.3661L90.2511 26.4691C90.2173 26.3406 90.2854 26.2061 90.4034 26.1685L95.6003 24.5442C95.7183 24.5079 95.8413 24.5818 95.8752 24.7103L96.111 25.6073C96.1448 25.737 96.0764 25.8703 95.9585 25.9079Z" fill="url(#paint10_linear_3_48)"/>
<path id="path228" d="M35.388 100.217L34.7463 100.232C34.6543 100.235 34.5781 100.155 34.5761 100.054L34.5265 97.5821C34.5244 97.4817 34.5974 97.3986 34.6896 97.3964L35.3311 97.3811C35.4231 97.3788 35.4993 97.4584 35.5013 97.5588L35.5509 100.031C35.553 100.132 35.48 100.215 35.388 100.217Z" fill="url(#paint11_linear_3_48)"/>
<path id="path244" d="M72.8879 96.2386L72.2463 96.254C72.1543 96.2561 72.0781 96.1765 72.076 96.0761L72.0264 93.6036C72.0244 93.5033 72.0973 93.4201 72.1894 93.418L72.831 93.4027C72.9231 93.4005 72.9994 93.48 73.0014 93.5805L73.0509 96.0529C73.0529 96.1532 72.9799 96.2364 72.8879 96.2386Z" fill="url(#paint12_linear_3_48)"/>
<path id="path260" d="M178.218 55.5612L178.769 55.2036C178.849 55.1527 178.874 55.0412 178.828 54.9551L177.669 52.8291C177.622 52.743 177.52 52.7139 177.44 52.7661L176.889 53.1236C176.81 53.1745 176.783 53.2861 176.831 53.3721L177.989 55.4982C178.037 55.5842 178.139 55.6133 178.218 55.5612Z" fill="url(#paint13_linear_3_48)"/>
<path id="path276" d="M144.479 73.8558L145.03 73.4982C145.109 73.4473 145.136 73.3358 145.088 73.2485L143.93 71.1236C143.883 71.0376 143.781 71.0085 143.701 71.0594L143.15 71.4182C143.071 71.4691 143.044 71.5806 143.092 71.6667L144.25 73.7928C144.297 73.8788 144.4 73.9067 144.479 73.8558" fill="url(#paint14_linear_3_48)"/>
<g id="couple">
<path id="path292" d="M210.202 71.9345C209.71 71.9345 209.22 71.9163 208.737 71.8787C208.526 71.863 208.317 71.8436 208.108 71.8218C199.54 70.8933 192.492 64.3345 190.118 55.5842C189.558 53.5248 189.258 51.343 189.258 49.086C189.258 40.5891 193.511 33.1745 199.82 29.2376C202.881 27.3285 206.424 26.2376 210.202 26.2376C210.564 26.2376 210.923 26.2485 211.281 26.2679C215.619 26.5079 219.608 28.1879 222.855 30.8776C225.434 33.0133 227.545 35.7867 228.992 38.9818C230.371 42.0279 231.147 45.4582 231.147 49.086C231.147 54.166 229.628 58.8569 227.058 62.6509C223.242 68.2824 217.113 71.9345 210.202 71.9345V71.9345ZM210.202 26.9976C199.02 26.9976 189.954 36.8873 189.954 49.086C189.954 61.2848 199.02 71.1745 210.202 71.1745C221.384 71.1745 230.45 61.2848 230.45 49.086C230.45 36.8873 221.384 26.9976 210.202 26.9976Z" fill="url(#paint15_linear_3_48)"/>
<path id="path294" d="M230.45 49.0861C230.45 61.2849 221.384 71.1746 210.202 71.1746C199.02 71.1746 189.954 61.2849 189.954 49.0861C189.954 36.8873 199.02 26.9976 210.202 26.9976C221.384 26.9976 230.45 36.8873 230.45 49.0861Z" fill="#7D97F4"/>
<path id="path296" d="M191.538 48.2376H191.526C191.408 48.2303 191.318 48.1212 191.323 47.9927C191.366 47.1237 191.458 46.2521 191.598 45.4012C191.617 45.2885 191.707 45.2097 191.81 45.2097C191.822 45.2097 191.834 45.2109 191.847 45.2133C191.963 45.2364 192.04 45.3576 192.019 45.4849C191.882 46.3164 191.791 47.1673 191.751 48.0158C191.744 48.1406 191.65 48.2376 191.538 48.2376" fill="#E2E8FD"/>
<path id="path298" d="M193.506 40.1443C193.473 40.1443 193.441 40.1358 193.41 40.1188C193.304 40.0606 193.262 39.92 193.316 39.8049C196.552 32.8085 203.023 28.4631 210.202 28.4631C211.348 28.4631 212.494 28.5746 213.612 28.7976C213.729 28.8206 213.805 28.9418 213.784 29.0691C213.765 29.1806 213.677 29.2606 213.577 29.2606C213.563 29.2606 213.55 29.2594 213.535 29.257C212.443 29.0388 211.321 28.9297 210.202 28.9297C203.185 28.9297 196.861 33.177 193.697 40.0158C193.66 40.097 193.584 40.1443 193.506 40.1443Z" fill="#E2E8FD"/>
<path id="path300" d="M210.643 68.263C201.179 68.263 193.507 59.8921 193.507 49.5673C193.507 39.2424 201.179 30.8727 210.643 30.8727C220.108 30.8727 227.781 39.2424 227.781 49.5673C227.781 59.8921 220.108 68.263 210.643 68.263Z" fill="#E2E8FD"/>
<path id="path316" d="M208.733 38.794C208.733 40.3588 207.57 41.6267 206.137 41.6267C204.702 41.6267 203.539 40.3588 203.539 38.794C203.539 37.2291 204.702 35.9612 206.137 35.9612C207.57 35.9612 208.733 37.2291 208.733 38.794Z" fill="url(#paint16_linear_3_48)"/>
<path id="path332" d="M210.238 51.7443H209.001V42.4364H209.638C209.969 42.4364 210.238 42.7285 210.238 43.0909V51.7443Z" fill="url(#paint17_linear_3_48)"/>
<path id="path348" d="M202.034 51.7443H203.271V42.4364H202.634C202.303 42.4364 202.034 42.7285 202.034 43.0909V51.7443Z" fill="url(#paint18_linear_3_48)"/>
<path id="path364" d="M208.495 52.3261H203.741V42.4364H208.495V52.3261Z" fill="url(#paint19_linear_3_48)"/>
<path id="path380" d="M205.321 62.9406H204.272C203.999 62.9406 203.778 62.6994 203.778 62.4012V51.4824H205.814V62.4012C205.814 62.6994 205.593 62.9406 205.321 62.9406" fill="url(#paint20_linear_3_48)"/>
<path id="path396" d="M208.038 62.9406H206.989C206.716 62.9406 206.494 62.6994 206.494 62.4012V51.4824H208.532V62.4012C208.532 62.6994 208.31 62.9406 208.038 62.9406Z" fill="url(#paint21_linear_3_48)"/>
<path id="path412" d="M217.884 38.794C217.884 40.3588 216.721 41.6267 215.287 41.6267C213.853 41.6267 212.69 40.3588 212.69 38.794C212.69 37.2291 213.853 35.9612 215.287 35.9612C216.721 35.9612 217.884 37.2291 217.884 38.794Z" fill="url(#paint22_linear_3_48)"/>
<path id="path428" d="M219.389 51.7443H218.152V42.4364H218.789C219.12 42.4364 219.389 42.7285 219.389 43.0909V51.7443Z" fill="url(#paint23_linear_3_48)"/>
<path id="path444" d="M211.186 51.7443H212.422V42.4364H211.786C211.454 42.4364 211.186 42.7285 211.186 43.0909V51.7443Z" fill="url(#paint24_linear_3_48)"/>
<path id="path460" d="M218.264 56.7358H212.271L212.891 42.4364H217.645L218.264 56.7358Z" fill="url(#paint25_linear_3_48)"/>
<path id="path476" d="M214.471 62.9406H213.422C213.15 62.9406 212.928 62.6994 212.928 62.4012V51.4824H214.966V62.4012C214.966 62.6994 214.744 62.9406 214.471 62.9406Z" fill="url(#paint26_linear_3_48)"/>
<path id="path492" d="M217.188 62.9406H216.139C215.867 62.9406 215.646 62.6994 215.646 62.4012V51.4824H217.682V62.4012C217.682 62.6994 217.461 62.9406 217.188 62.9406" fill="url(#paint27_linear_3_48)"/>
</g>
<g id="house">
<path id="path508" d="M234.881 126.75C234.661 126.75 234.442 126.747 234.223 126.739C233.798 126.725 233.373 126.697 232.955 126.655C225.273 125.891 218.791 120.602 215.766 113.253C214.987 111.362 214.438 109.335 214.156 107.213C214.011 106.132 213.937 105.027 213.937 103.902C213.937 96.623 217.058 90.1385 221.919 85.9544C225.484 82.8851 229.987 81.0539 234.881 81.0539C238.178 81.0539 241.296 81.8846 244.07 83.3647C251.031 87.0782 255.826 94.8794 255.826 103.902C255.826 116.521 246.448 126.75 234.881 126.75V126.75ZM234.881 81.8137C223.699 81.8137 214.633 91.703 214.633 103.902C214.633 116.101 223.699 125.99 234.881 125.99C246.063 125.99 255.129 116.101 255.129 103.902C255.129 91.703 246.063 81.8137 234.881 81.8137Z" fill="url(#paint28_linear_3_48)"/>
<path id="path510" d="M255.129 103.902C255.129 116.101 246.063 125.99 234.881 125.99C223.699 125.99 214.633 116.101 214.633 103.902C214.633 91.703 223.699 81.8137 234.881 81.8137C246.063 81.8137 255.129 91.703 255.129 103.902" fill="#7D97F4"/>
<path id="path512" d="M216.217 103.053L216.204 103.053C216.087 103.046 215.997 102.936 216.002 102.808C216.044 101.94 216.137 101.069 216.278 100.217C216.296 100.105 216.386 100.026 216.488 100.026C216.5 100.026 216.513 100.027 216.525 100.029C216.642 100.052 216.719 100.173 216.698 100.3C216.561 101.132 216.47 101.984 216.43 102.832C216.423 102.957 216.329 103.053 216.217 103.053" fill="#E2E8FD"/>
<path id="path514" d="M218.184 94.9598C218.152 94.9598 218.12 94.9518 218.089 94.9347C217.983 94.8766 217.941 94.7362 217.994 94.6213C221.231 87.6249 227.702 83.2786 234.881 83.2786C236.027 83.2786 237.173 83.391 238.291 83.6136C238.408 83.6365 238.484 83.758 238.463 83.885C238.444 83.9972 238.355 84.0766 238.254 84.0766C238.241 84.0766 238.228 84.0753 238.214 84.0725C237.122 83.8553 236 83.7452 234.881 83.7452C227.864 83.7452 221.54 87.9935 218.376 94.8315C218.339 94.9129 218.263 94.9598 218.184 94.9598" fill="#E2E8FD"/>
<path id="path516" d="M235.322 123.079C225.858 123.079 218.186 114.708 218.186 104.383C218.186 94.0583 225.858 85.6882 235.322 85.6882C244.787 85.6882 252.46 94.0583 252.46 104.383C252.46 114.708 244.787 123.079 235.322 123.079Z" fill="#E2E8FD"/>
<path id="path532" d="M246.411 100.482H224.259L235.334 91.2763L246.411 100.482Z" fill="url(#paint29_linear_3_48)"/>
<path id="path548" d="M226.896 101.14V116.758H232.471V105.907H238.349V116.758H243.773V101.14H226.896Z" fill="url(#paint30_linear_3_48)"/>
</g>
<path id="path580" d="M92.8051 117.599C92.8051 117.599 89.4407 127.604 83.7082 130.731C83.7082 130.731 85.6161 134.127 86.6118 134.333C86.6118 134.333 92.7357 125.783 93.36 118.777L92.8051 117.599Z" fill="url(#paint31_linear_3_48)"/>
<path id="path596" d="M69.7502 177.783L69.581 179.301C69.5488 179.589 69.3412 179.816 69.0771 179.85C68.6312 179.904 67.9157 179.961 67.2156 179.881C66.9083 179.846 66.7088 179.505 66.8025 179.184C66.9731 178.599 67.2853 177.72 67.7354 177.202H69.2783C69.5636 177.202 69.7846 177.474 69.7502 177.783Z" fill="url(#paint32_linear_3_48)"/>
<path id="path612" d="M81.8352 160.008L82.0956 161.68C82.0956 161.68 81.2235 171.316 81.0683 175.171C81.044 175.776 81.1874 176.373 81.4781 176.888L82.9947 179.575L79.1405 177.093L79.0637 176.581L79.6946 175.634L78.8683 164.839C78.8197 164.205 78.9397 163.568 79.2138 163.006L80.011 161.373L81.8352 160.008" fill="url(#paint33_linear_3_48)"/>
<path id="path628" d="M83.2484 179.964H82.0185C81.7883 179.964 81.5712 179.848 81.4308 179.65C81.0473 179.105 80.2529 178.046 79.8731 178.018C79.3618 177.981 79.4271 179.964 79.4271 179.964H79.1405L78.7774 177.499C78.6861 176.88 78.9688 176.265 79.4792 175.975C79.4792 175.975 79.596 176.918 80.2298 177.335C80.8635 177.752 82.809 179.246 82.809 179.246C82.809 179.246 83.0473 179.208 83.3089 179.261C83.6969 179.337 83.6428 179.964 83.2484 179.964" fill="url(#paint34_linear_3_48)"/>
<path id="path644" d="M76.5564 160.802C76.5564 160.802 71.4472 171.375 70.6351 173.789C69.823 176.202 69.5384 178.217 69.5276 178.407C69.5106 178.705 69.1708 178.99 68.2343 178.99C67.7511 178.99 67.5143 178.779 67.3984 178.575C67.2995 178.4 67.2944 178.182 67.3778 177.998C67.6733 177.345 68.6112 175.261 68.9586 174.315C69.3733 173.185 70.2654 168.068 70.7547 166.29C71.2439 164.51 71.7969 162.581 73.9275 160.802C73.9275 160.802 75.39 159.24 76.5564 160.802" fill="url(#paint35_linear_3_48)"/>
<path id="path660" d="M79.7839 143.479C81.1019 137.387 77.7631 133.941 77.7631 133.941C79.8698 131.735 83.7081 130.731 83.7081 130.731C83.7081 130.731 87.3706 133.652 86.9361 135.938C86.6815 137.279 84.3617 143.965 84.3617 143.965C84.3617 143.965 82.2167 145.073 79.7839 143.479Z" fill="url(#paint36_linear_3_48)"/>
<path id="path676" d="M76.8619 146.495C77.3982 144.732 79.7839 143.479 79.7839 143.479C82.2166 145.073 84.3616 143.965 84.3616 143.965C84.3616 143.965 84.8427 145.971 84.5107 147.835C84.1786 149.699 82.0955 161.68 82.0955 161.68C78.8133 162.405 73.7652 160.95 73.7652 160.95C75.8559 156.901 76.3255 148.257 76.8619 146.495" fill="url(#paint37_linear_3_48)"/>
<path id="path692" d="M81.3137 126.705L80.2422 131.955C80.1395 132.418 80.526 132.342 80.9547 132.255C81.6566 132.11 82.5612 131.812 82.8637 131.217C82.8944 131.156 82.9098 131.087 82.9186 131.018L83.3789 127.378C83.4153 127.088 83.2722 126.808 83.0279 126.691L82.1396 126.261C81.7976 126.096 81.4017 126.308 81.3137 126.705Z" fill="url(#paint38_linear_3_48)"/>
<path id="path708" d="M77.7631 133.941C77.7631 133.941 70.2848 139.778 76.8067 145.912C76.8067 145.912 77.0555 146.218 77.5446 146.377C77.7917 146.458 78.5222 147.061 78.8927 147.376C79.0118 147.476 79.1838 147.442 79.2639 147.303C79.3265 147.193 79.334 147.057 79.2834 146.939L78.3576 144.804C78.1004 144.543 77.707 144.524 77.4301 144.76C77.2535 144.912 76.9947 144.849 76.8959 144.628C76.3917 143.508 75.4397 140.213 79.3362 136.491C79.4826 136.35 79.5198 136.119 79.4299 135.931C79.1561 135.358 78.53 134.218 77.7631 133.941Z" fill="url(#paint39_linear_3_48)"/>
<path id="path724" d="M82.5708 121.705C82.5708 121.705 83.8398 122.29 84.7027 124.291C85.5656 126.291 84.9212 127.214 84.1118 127.342C83.3025 127.469 82.0921 127.45 80.8117 126.156C79.5314 124.864 80.9212 121.013 82.5708 121.705" fill="url(#paint40_linear_3_48)"/>
<g id="hair">
<path id="path564" d="M80.4974 122.268C80.4974 122.268 79.3148 122.896 79.0973 123.616C78.9229 124.194 77.6152 124.269 77.486 125.406C77.4193 125.994 77.0209 126.464 76.4846 126.554C75.1491 126.777 73.0908 127.533 72.7615 130.063C72.5102 131.994 73.4124 132.726 74.3594 132.979C75.0548 133.166 75.5171 133.904 75.3764 134.67C75.2414 135.405 75.4426 136.255 76.6094 136.926C79.2241 138.43 81.8352 133.36 81.8352 133.36L82.3703 124.507L80.4974 122.268" fill="url(#paint41_linear_3_48)"/>
<path id="path740" d="M81.6724 125.088C81.6724 125.088 80.715 122.162 83.0935 122.127L83.6532 122.554C83.6532 122.554 84.526 120.932 83.0935 120.157C81.6611 119.382 79.9846 120.022 79.3749 122.127C78.7654 124.233 78.6614 125.642 79.6755 126.65C80.6897 127.657 81.1076 126.515 81.1076 126.515C81.1076 126.515 80.5554 125.572 80.7802 125.068C81.005 124.565 81.5235 125.172 81.5235 125.172L81.6724 125.088" fill="url(#paint42_linear_3_48)"/>
</g>
<path id="path756" d="M81.4057 125.415C81.4057 125.415 80.9216 123.907 80.2758 124.508C79.63 125.108 80.8007 125.901 81.2589 126.156L81.4057 125.415Z" fill="url(#paint43_linear_3_48)"/>
<path id="path772" d="M93.128 119.42C93.1793 119.598 92.5849 119.869 92.2349 119.141C92.2227 118.792 92.0281 117.297 92.2193 117.013C93.2372 115.499 95.2108 113.601 95.2108 113.601C95.5443 113.96 95.2696 114.312 95.2696 114.312L94.3122 115.401C94.5125 115.795 94.7567 116.129 94.8711 116.606C94.9579 116.968 94.9049 117.354 94.7375 117.683C94.5693 118.013 94.3401 118.443 94.1233 118.779C93.713 119.415 93.128 119.42 93.128 119.42Z" fill="url(#paint44_linear_3_48)"/>
<path id="path788" d="M93.6301 118.679L93.4196 118.638C93.4468 118.472 93.6905 117.012 93.8898 116.658C93.9634 116.528 93.9924 116.421 93.9739 116.349C93.9646 116.312 93.9417 116.28 93.904 116.25L93.1115 116.983L92.8472 117.757L92.6467 117.676L92.9306 116.844L93.8787 115.967L93.9421 116.003C94.0717 116.075 94.1494 116.167 94.1799 116.285C94.2159 116.426 94.1806 116.587 94.0719 116.78C93.9213 117.048 93.7019 118.241 93.6301 118.679" fill="url(#paint45_linear_3_48)"/>
<g id="uperstrip">
<path id="path790" d="M198.309 73.6788L198.038 74.32C197.962 74.4994 197.767 74.577 197.602 74.4945C197.438 74.4121 197.366 74.1988 197.441 74.0194L197.444 74.0134L197.447 74.0073L197.728 73.3831L197.73 73.3782C197.808 73.2049 198 73.1334 198.159 73.2182C198.316 73.3019 198.381 73.5067 198.309 73.6788" fill="white"/>
<path id="path792" d="M197.375 75.7976L197.079 76.4243C196.989 76.6133 196.776 76.6873 196.602 76.5903C196.429 76.4921 196.361 76.2606 196.451 76.0715L196.453 76.0655L196.457 76.0594L196.762 75.4485L196.764 75.4449C196.857 75.2618 197.066 75.1939 197.233 75.2945C197.399 75.3927 197.461 75.617 197.375 75.7976" fill="white"/>
<path id="path794" d="M196.357 77.8703L196.036 78.4824C195.932 78.68 195.701 78.7479 195.52 78.6352C195.339 78.5212 195.277 78.2703 195.38 78.0727L195.384 78.0655L195.388 78.0594L195.717 77.4655L195.719 77.4606C195.824 77.2691 196.052 77.2085 196.228 77.3236C196.4 77.4376 196.457 77.68 196.357 77.8703" fill="white"/>
<path id="path796" d="M195.259 79.8922L194.913 80.4887C194.796 80.6939 194.547 80.7552 194.359 80.6258C194.171 80.4965 194.114 80.2254 194.233 80.0203L194.237 80.0135L194.241 80.0072L194.592 79.4287L194.596 79.4242C194.716 79.2258 194.961 79.1718 195.143 79.3033C195.322 79.4329 195.372 79.6948 195.259 79.8922Z" fill="white"/>
<path id="path798" d="M194.082 81.8621L193.714 82.4424C193.58 82.6541 193.314 82.7071 193.12 82.5608C192.926 82.4144 192.878 82.1242 193.011 81.9124L193.016 81.9055L193.02 81.8991L193.394 81.3375L193.397 81.3327C193.533 81.128 193.796 81.0827 193.983 81.2312C194.168 81.3776 194.211 81.6581 194.082 81.8621" fill="white"/>
<path id="path800" d="M192.83 83.7771L192.44 84.3405C192.29 84.5578 192.007 84.601 191.808 84.437C191.608 84.2729 191.569 83.9638 191.719 83.7465L191.723 83.7394L191.729 83.7328L192.123 83.1888L192.127 83.1841C192.279 82.9742 192.559 82.9388 192.751 83.1049C192.941 83.2686 192.974 83.5675 192.83 83.7771" fill="white"/>
<path id="path802" d="M191.505 85.6347L191.094 86.1804C190.928 86.4022 190.627 86.4343 190.423 86.2521C190.22 86.0697 190.191 85.7422 190.358 85.5203L190.363 85.513L190.369 85.5063L190.783 84.9807L190.788 84.9759C190.957 84.7617 191.253 84.7376 191.449 84.9221C191.642 85.1037 191.667 85.4206 191.505 85.6347" fill="white"/>
<path id="path804" d="M190.111 87.4324L189.68 87.9596C189.496 88.185 189.179 88.2046 188.972 88.0035C188.766 87.8024 188.748 87.4567 188.932 87.2313L188.938 87.224L188.944 87.2172L189.378 86.7107L189.382 86.7058C189.569 86.4885 189.881 86.477 190.08 86.6801C190.277 86.8804 190.289 87.2148 190.111 87.4324Z" fill="white"/>
<path id="path806" d="M188.65 89.1676L188.199 89.6758C187.998 89.9035 187.664 89.9092 187.456 89.6887C187.247 89.4682 187.241 89.1049 187.443 88.8773L187.45 88.8699L187.457 88.8631L187.909 88.3763L187.913 88.3713C188.118 88.1521 188.446 88.1545 188.647 88.3769C188.846 88.5961 188.846 88.9475 188.65 89.1676" fill="white"/>
<path id="path808" d="M187.126 90.838L186.656 91.326C186.436 91.555 186.087 91.5456 185.877 91.3054C185.667 91.0652 185.676 90.6848 185.896 90.4561L185.903 90.4486L185.91 90.4418L186.38 89.9754L186.384 89.9706C186.607 89.7503 186.95 89.768 187.152 90.0102C187.351 90.2488 187.338 90.6166 187.126 90.838Z" fill="white"/>
<path id="path810" d="M185.539 92.4409L185.051 92.9082C184.812 93.1371 184.449 93.1114 184.239 92.851C184.029 92.5905 184.052 92.1939 184.291 91.9651L184.299 91.9577L184.307 91.9509L184.793 91.5056L184.799 91.5007C185.039 91.2808 185.398 91.3153 185.599 91.5775C185.798 91.8358 185.769 92.2194 185.539 92.4409Z" fill="white"/>
<path id="path812" d="M183.893 93.9739L183.389 94.4198C183.131 94.6474 182.753 94.604 182.544 94.323C182.336 94.0421 182.376 93.6298 182.633 93.4022L182.641 93.3948L182.649 93.3881L183.152 92.9647L183.158 92.9598C183.417 92.7415 183.789 92.7937 183.989 93.0763C184.187 93.3548 184.142 93.7535 183.893 93.9739" fill="white"/>
<path id="path814" d="M182.192 95.4337L181.671 95.8573C181.394 96.0823 181.003 96.0201 180.797 95.7182C180.591 95.4164 180.648 94.9893 180.924 94.7644L180.933 94.757L180.942 94.7504L181.46 94.3494L181.466 94.3447C181.744 94.1293 182.129 94.2006 182.327 94.5037C182.521 94.8025 182.46 95.2156 182.192 95.4337Z" fill="white"/>
<path id="path816" d="M180.438 96.8192L179.901 97.2198C179.606 97.4409 179.201 97.3584 178.999 97.0354C178.796 96.7125 178.871 96.2715 179.168 96.0504L179.178 96.0431L179.187 96.0368L179.718 95.6592L179.724 95.6543C180.022 95.4433 180.42 95.5349 180.613 95.8589C180.803 96.1783 180.724 96.6047 180.438 96.8192" fill="white"/>
<path id="path818" d="M178.633 98.1269L178.082 98.5037C177.767 98.7195 177.35 98.6154 177.152 98.2713C176.954 97.927 177.05 97.4732 177.366 97.2575L177.376 97.2503L177.386 97.2441L177.93 96.8903L177.938 96.8857C178.254 96.6802 178.663 96.7935 178.851 97.1387C179.037 97.4788 178.939 97.9176 178.633 98.1269" fill="white"/>
<path id="path820" d="M176.78 99.3544L176.216 99.7068C175.88 99.9158 175.453 99.7889 175.261 99.4233C175.07 99.0577 175.187 98.5919 175.521 98.3828L175.532 98.3761L175.543 98.3699L176.1 98.0409L176.108 98.0365C176.443 97.8381 176.863 97.9742 177.045 98.3405C177.225 98.7015 177.105 99.1516 176.78 99.3544" fill="white"/>
<path id="path822" d="M174.882 100.499L174.304 100.826C173.95 101.027 173.513 100.876 173.329 100.489C173.146 100.102 173.283 99.6253 173.639 99.4245L173.65 99.4181L173.661 99.4122L174.23 99.1085L174.238 99.1041C174.593 98.9143 175.022 99.0745 175.196 99.4622C175.367 99.8439 175.227 100.304 174.882 100.499" fill="white"/>
<path id="path824" d="M172.942 101.558L172.353 101.859C171.979 102.05 171.533 101.874 171.358 101.466C171.183 101.057 171.344 100.571 171.719 100.38L171.731 100.374L171.743 100.368L172.322 100.091L172.331 100.087C172.705 99.9068 173.142 100.092 173.306 100.501C173.469 100.904 173.305 101.373 172.942 101.558" fill="white"/>
<path id="path826" d="M170.963 102.53L170.362 102.804C169.969 102.983 169.515 102.78 169.351 102.351C169.187 101.921 169.372 101.427 169.767 101.247L169.78 101.241L169.792 101.236L170.381 100.985L170.39 100.981C170.783 100.814 171.228 101.026 171.381 101.455C171.533 101.879 171.345 102.355 170.963 102.53Z" fill="white"/>
<path id="path828" d="M168.948 103.411L168.337 103.656C167.923 103.823 167.464 103.592 167.312 103.141C167.16 102.69 167.371 102.19 167.784 102.024L167.798 102.018L167.811 102.013L168.408 101.79L168.418 101.786C168.831 101.632 169.28 101.872 169.422 102.322C169.561 102.766 169.349 103.249 168.948 103.411Z" fill="white"/>
<path id="path830" d="M166.899 104.198L166.278 104.415C165.846 104.567 165.382 104.307 165.243 103.835C165.104 103.363 165.342 102.858 165.776 102.707L165.789 102.702L165.803 102.697L166.408 102.502L166.419 102.499C166.85 102.359 167.303 102.628 167.431 103.099C167.557 103.563 167.319 104.05 166.899 104.198" fill="white"/>
<path id="path832" d="M164.819 104.889L164.19 105.077C163.739 105.212 163.272 104.922 163.149 104.43C163.026 103.938 163.291 103.429 163.742 103.294L163.757 103.29L163.771 103.286L164.383 103.12L164.394 103.117C164.844 102.994 165.3 103.293 165.412 103.784C165.522 104.267 165.258 104.757 164.819 104.889" fill="white"/>
<path id="path834" d="M162.712 105.481L162.074 105.639C161.606 105.756 161.138 105.435 161.031 104.923C160.924 104.41 161.219 103.901 161.688 103.784L161.703 103.781L161.719 103.777L162.337 103.64L162.348 103.638C162.816 103.534 163.272 103.864 163.368 104.374C163.461 104.877 163.168 105.367 162.712 105.481Z" fill="white"/>
</g>
<g id="middlestrip">
<path id="path836" d="M207.807 105.452L207.172 105.56C206.99 105.591 206.819 105.455 206.79 105.256C206.761 105.057 206.887 104.871 207.069 104.839L207.083 104.837L207.72 104.758C207.897 104.735 208.056 104.873 208.077 105.065C208.097 105.252 207.976 105.422 207.807 105.452" fill="white"/>
<path id="path838" d="M205.69 105.807L205.053 105.909C204.847 105.942 204.654 105.787 204.624 105.561C204.593 105.336 204.737 105.126 204.943 105.093L204.959 105.09L205.597 105.016C205.797 104.992 205.978 105.15 206 105.369C206.021 105.582 205.882 105.775 205.69 105.807" fill="white"/>
<path id="path840" d="M203.568 106.135L202.931 106.229C202.706 106.262 202.499 106.09 202.468 105.844C202.438 105.598 202.596 105.372 202.821 105.339L202.834 105.337L203.472 105.265C203.692 105.24 203.89 105.414 203.913 105.654C203.937 105.89 203.782 106.102 203.568 106.135" fill="white"/>
<path id="path842" d="M201.444 106.441L200.807 106.53C200.562 106.564 200.34 106.376 200.309 106.109C200.278 105.844 200.45 105.6 200.694 105.567L200.709 105.565L201.347 105.498C201.585 105.473 201.799 105.664 201.822 105.924C201.845 106.18 201.675 106.408 201.444 106.441Z" fill="white"/>
<path id="path844" d="M199.318 106.73L198.679 106.813C198.417 106.847 198.179 106.643 198.148 106.356C198.116 106.07 198.303 105.811 198.566 105.776L198.579 105.775L198.581 105.775L199.22 105.714L199.221 105.714C199.479 105.689 199.706 105.897 199.729 106.178C199.75 106.453 199.567 106.697 199.318 106.73Z" fill="white"/>
<path id="path846" d="M197.188 106.998L196.549 107.071C196.271 107.103 196.022 106.883 195.992 106.58C195.963 106.277 196.166 106.005 196.443 105.973L196.45 105.973L196.453 105.972L197.092 105.913L197.093 105.912C197.368 105.887 197.61 106.109 197.634 106.409C197.658 106.705 197.458 106.967 197.188 106.998" fill="white"/>
<path id="path848" d="M195.056 107.236L194.416 107.303C194.127 107.334 193.869 107.103 193.841 106.787C193.813 106.472 194.024 106.191 194.314 106.16L194.321 106.16L194.326 106.159L194.964 106.105L194.966 106.105C195.252 106.081 195.502 106.314 195.524 106.627C195.547 106.936 195.337 107.206 195.056 107.236" fill="white"/>
<path id="path850" d="M192.922 107.455L192.281 107.517C191.981 107.547 191.716 107.304 191.689 106.976C191.661 106.648 191.883 106.358 192.184 106.329L192.192 106.328L192.196 106.328L192.834 106.28L192.837 106.279C193.134 106.257 193.392 106.502 193.413 106.827C193.433 107.147 193.214 107.426 192.922 107.455Z" fill="white"/>
<path id="path852" d="M190.787 107.656L190.146 107.713C189.833 107.74 189.56 107.487 189.534 107.146C189.509 106.806 189.741 106.507 190.053 106.48L190.061 106.479L190.066 106.479L190.704 106.435L190.707 106.435C191.016 106.414 191.281 106.671 191.301 107.008C191.32 107.341 191.09 107.629 190.787 107.656" fill="white"/>
<path id="path854" d="M188.649 107.839L188.008 107.89C187.684 107.916 187.402 107.65 187.379 107.297C187.356 106.944 187.598 106.637 187.922 106.612L187.93 106.611L187.934 106.611L188.573 106.573H188.576C188.896 106.554 189.17 106.822 189.187 107.172C189.204 107.517 188.963 107.813 188.649 107.839" fill="white"/>
<path id="path856" d="M186.51 108.003L185.869 108.048C185.533 108.072 185.244 107.796 185.222 107.43C185.2 107.065 185.454 106.749 185.789 106.725L185.798 106.725L185.802 106.724L186.442 106.692L186.443 106.692C186.775 106.675 187.056 106.955 187.072 107.318C187.088 107.675 186.837 107.979 186.51 108.003" fill="white"/>
<path id="path858" d="M184.37 108.146L183.728 108.183C183.384 108.203 183.091 107.915 183.073 107.54C183.054 107.165 183.319 106.845 183.662 106.826L183.669 106.825H183.67L184.31 106.795L184.311 106.795C184.653 106.779 184.942 107.069 184.957 107.442C184.971 107.813 184.709 108.127 184.37 108.146" fill="white"/>
<path id="path860" d="M182.229 108.263L181.586 108.294C181.237 108.311 180.94 108.016 180.924 107.635C180.909 107.254 181.18 106.931 181.529 106.913L181.536 106.913H181.537L182.177 106.889L182.179 106.889C182.527 106.876 182.819 107.172 182.83 107.552C182.842 107.929 182.573 108.246 182.229 108.263" fill="white"/>
<path id="path862" d="M180.087 108.361L179.443 108.387C179.088 108.401 178.789 108.099 178.777 107.711C178.763 107.323 179.041 106.997 179.396 106.983L179.402 106.982H179.403L180.043 106.964L180.045 106.964C180.399 106.953 180.693 107.257 180.703 107.644C180.713 108.027 180.437 108.347 180.087 108.361" fill="white"/>
<path id="path864" d="M177.943 108.441L177.3 108.461C176.939 108.473 176.638 108.162 176.627 107.768C176.617 107.374 176.901 107.045 177.262 107.034L177.269 107.033H177.27L177.91 107.02H177.912C178.271 107.013 178.569 107.325 178.575 107.717C178.582 108.107 178.3 108.429 177.943 108.441" fill="white"/>
<path id="path866" d="M175.8 108.499L175.157 108.512C174.792 108.519 174.491 108.202 174.484 107.804C174.478 107.407 174.769 107.079 175.133 107.072H175.134H175.137L175.777 107.061H175.778C176.142 107.056 176.441 107.373 176.447 107.77C176.452 108.167 176.163 108.493 175.8 108.499" fill="white"/>
<path id="path868" d="M173.656 108.534L173.012 108.541C172.646 108.545 172.346 108.224 172.342 107.825C172.339 107.425 172.632 107.098 172.999 107.094H173.001H173.002L173.643 107.089H173.644C174.01 107.086 174.309 107.408 174.311 107.807C174.313 108.206 174.021 108.532 173.656 108.534" fill="white"/>
<path id="path870" d="M171.511 108.551L170.868 108.552C170.499 108.553 170.2 108.228 170.199 107.826C170.199 107.424 170.497 107.098 170.866 107.097H170.867H170.869L171.509 107.098H171.51C171.878 107.099 172.176 107.424 172.176 107.825C172.176 108.227 171.879 108.552 171.511 108.551" fill="white"/>
<path id="path872" d="M169.367 108.549L168.723 108.545C168.353 108.543 168.054 108.213 168.057 107.809C168.059 107.405 168.361 107.08 168.731 107.082H168.733H168.734L169.376 107.089H169.377C169.747 107.092 170.043 107.422 170.04 107.826C170.037 108.229 169.737 108.553 169.367 108.549" fill="white"/>
<path id="path874" d="M167.222 108.524C167.008 108.5 166.794 108.444 166.582 108.315C166.316 108.152 166.221 107.785 166.37 107.494C166.424 107.388 166.504 107.307 166.597 107.254L166.598 107.254C166.813 107.131 167.028 107.082 167.241 107.066L167.242 107.066C167.612 107.039 167.932 107.343 167.958 107.746C167.982 108.149 167.703 108.498 167.334 108.525C167.298 108.528 167.258 108.527 167.222 108.524" fill="white"/>
</g>
<g id="lowerstrip">
<path id="path876" d="M161.044 111.144L161.636 111.437C161.983 111.609 162.138 112.056 161.98 112.436C161.823 112.811 161.422 112.979 161.077 112.817L161.07 112.814L160.487 112.54L160.48 112.537C160.126 112.371 159.962 111.923 160.114 111.536C160.267 111.15 160.678 110.972 161.032 111.138L161.044 111.144" fill="white"/>
<path id="path878" d="M163.003 112.144L163.584 112.458C163.917 112.637 164.052 113.076 163.888 113.438C163.726 113.796 163.331 113.945 163.002 113.776L162.996 113.772L162.421 113.478L162.414 113.475C162.077 113.301 161.931 112.861 162.09 112.492C162.249 112.123 162.652 111.964 162.991 112.138L163.003 112.144" fill="white"/>
<path id="path880" d="M164.929 113.214L165.5 113.548C165.816 113.734 165.935 114.163 165.766 114.508C165.598 114.848 165.212 114.979 164.898 114.804L164.891 114.8L164.326 114.485L164.32 114.482C163.998 114.302 163.87 113.871 164.034 113.519C164.2 113.167 164.594 113.028 164.918 113.208L164.929 113.214" fill="white"/>
<path id="path882" d="M166.82 114.352L167.381 114.707C167.681 114.896 167.783 115.316 167.61 115.643C167.438 115.967 167.061 116.079 166.762 115.9L166.757 115.896L166.2 115.56L166.194 115.557C165.888 115.372 165.778 114.95 165.947 114.616C166.117 114.281 166.503 114.16 166.81 114.345L166.82 114.352" fill="white"/>
<path id="path884" d="M168.677 115.557L169.226 115.931C169.51 116.124 169.597 116.533 169.419 116.843C169.244 117.149 168.877 117.245 168.593 117.062L168.588 117.058L168.042 116.702L168.037 116.699C167.747 116.51 167.651 116.099 167.824 115.782C167.999 115.464 168.374 115.36 168.666 115.55L168.677 115.557" fill="white"/>
<path id="path886" d="M170.494 116.826L171.032 117.22C171.301 117.416 171.373 117.813 171.193 118.106C171.015 118.396 170.658 118.476 170.391 118.288L170.385 118.285L169.85 117.91L169.845 117.907C169.57 117.714 169.49 117.314 169.667 117.014C169.843 116.714 170.21 116.627 170.484 116.819L170.494 116.826" fill="white"/>
<path id="path888" d="M172.273 118.159L172.8 118.571C173.053 118.769 173.111 119.154 172.929 119.43C172.749 119.703 172.403 119.768 172.151 119.579L172.146 119.575L171.621 119.181L171.617 119.178C171.358 118.983 171.292 118.595 171.47 118.312C171.649 118.028 172.004 117.957 172.264 118.152L172.273 118.159" fill="white"/>
<path id="path890" d="M174.012 119.553L174.525 119.983C174.763 120.182 174.808 120.555 174.625 120.814C174.444 121.07 174.11 121.121 173.872 120.931L173.868 120.927L173.356 120.515L173.351 120.512C173.107 120.315 173.054 119.94 173.234 119.673C173.414 119.406 173.759 119.349 174.003 119.546L174.012 119.553" fill="white"/>
<path id="path892" d="M175.708 121.007L176.208 121.455C176.431 121.655 176.463 122.013 176.28 122.256C176.1 122.496 175.777 122.533 175.555 122.343L175.55 122.339L175.049 121.909L175.046 121.905C174.816 121.709 174.777 121.347 174.958 121.096C175.138 120.846 175.47 120.803 175.699 121L175.708 121.007" fill="white"/>
<path id="path894" d="M177.359 122.519L177.846 122.984C178.053 123.183 178.075 123.528 177.892 123.755C177.712 123.979 177.402 124.005 177.193 123.813L177.19 123.81L176.702 123.362L176.699 123.359C176.484 123.162 176.457 122.813 176.637 122.579C176.817 122.345 177.137 122.315 177.351 122.512L177.359 122.519" fill="white"/>
<path id="path896" d="M178.964 124.088L179.437 124.57C179.631 124.767 179.641 125.098 179.46 125.309C179.281 125.518 178.983 125.531 178.79 125.342L178.786 125.338L178.311 124.874L178.308 124.87C178.109 124.675 178.092 124.339 178.271 124.121C178.45 123.903 178.758 123.885 178.958 124.081L178.964 124.088" fill="white"/>
<path id="path898" d="M180.522 125.712L180.98 126.21C181.16 126.405 181.16 126.721 180.981 126.916C180.806 127.11 180.52 127.113 180.34 126.925L180.337 126.921L179.877 126.44L179.873 126.438C179.688 126.244 179.681 125.922 179.859 125.72C180.037 125.518 180.33 125.512 180.516 125.705L180.522 125.712" fill="white"/>
<path id="path900" d="M182.031 127.389L182.474 127.903C182.64 128.095 182.631 128.396 182.456 128.577C182.282 128.755 182.01 128.748 181.843 128.564L181.84 128.56L181.394 128.063L181.391 128.059C181.22 127.868 181.223 127.562 181.398 127.375C181.573 127.188 181.854 127.192 182.026 127.382L182.031 127.389" fill="white"/>
<path id="path902" d="M183.489 129.118L183.917 129.646C184.069 129.834 184.052 130.121 183.88 130.287C183.709 130.451 183.451 130.435 183.298 130.253L183.296 130.25L182.864 129.737L182.861 129.735C182.703 129.547 182.716 129.256 182.887 129.084C183.059 128.912 183.326 128.924 183.483 129.112L183.489 129.118Z" fill="white"/>
<path id="path904" d="M184.894 130.897L185.306 131.44C185.444 131.623 185.42 131.895 185.252 132.046C185.087 132.196 184.842 132.172 184.702 131.995L184.699 131.992L184.283 131.464L184.281 131.461C184.137 131.278 184.156 131.001 184.323 130.844C184.492 130.686 184.744 130.707 184.889 130.891L184.894 130.897Z" fill="white"/>
<path id="path906" d="M186.246 132.725L186.64 133.282C186.766 133.459 186.736 133.716 186.572 133.853C186.411 133.989 186.181 133.959 186.053 133.787L186.051 133.783L185.651 133.24L185.649 133.238C185.518 133.059 185.543 132.798 185.707 132.655C185.87 132.512 186.109 132.539 186.241 132.718L186.246 132.725Z" fill="white"/>
<path id="path908" d="M187.54 134.599L187.918 135.17C188.031 135.342 187.996 135.582 187.838 135.705C187.682 135.828 187.466 135.793 187.35 135.625L187.348 135.622L186.964 135.066L186.962 135.062C186.843 134.89 186.876 134.645 187.034 134.515C187.192 134.384 187.417 134.42 187.536 134.593L187.54 134.599" fill="white"/>
</g>
<path id="path910" d="M188.778 136.518L189.137 137.102C189.239 137.268 189.199 137.492 189.047 137.604C188.897 137.713 188.694 137.671 188.591 137.51L188.589 137.508L188.223 136.937L188.221 136.934C188.114 136.767 188.151 136.538 188.303 136.422C188.457 136.305 188.667 136.345 188.773 136.511L188.778 136.518" fill="white"/>
<g id="med">
<path id="path926" d="M225.827 150.599C225.827 163.217 216.45 173.447 204.882 173.447C193.316 173.447 183.939 163.217 183.939 150.599C183.939 137.981 193.316 127.75 204.882 127.75C216.45 127.75 225.827 137.981 225.827 150.599" fill="url(#paint46_linear_3_48)"/>
<path id="path928" d="M225.13 150.599C225.13 162.798 216.064 172.687 204.882 172.687C193.7 172.687 184.634 162.798 184.634 150.599C184.634 138.4 193.7 128.51 204.882 128.51C216.064 128.51 225.13 138.4 225.13 150.599" fill="#7D97F4"/>
<path id="path944" d="M186.218 149.75H186.207C186.088 149.743 185.998 149.633 186.003 149.504C186.046 148.636 186.138 147.765 186.279 146.914C186.299 146.788 186.411 146.703 186.527 146.726C186.643 146.749 186.72 146.87 186.699 146.998C186.562 147.829 186.472 148.68 186.431 149.529C186.425 149.653 186.331 149.75 186.218 149.75Z" fill="url(#paint47_linear_3_48)"/>
<path id="path960" d="M188.187 141.657C188.153 141.657 188.121 141.648 188.09 141.632C187.984 141.573 187.942 141.433 187.996 141.319C191.232 134.321 197.703 129.976 204.882 129.976C206.028 129.976 207.175 130.088 208.292 130.31C208.409 130.333 208.486 130.455 208.464 130.582C208.443 130.708 208.332 130.794 208.216 130.768C207.124 130.552 206.002 130.442 204.882 130.442C197.865 130.442 191.541 134.69 188.378 141.528C188.34 141.61 188.264 141.657 188.187 141.657Z" fill="url(#paint48_linear_3_48)"/>
<path id="path976" d="M222.461 151.08C222.461 161.405 214.788 169.776 205.323 169.776C195.859 169.776 188.187 161.405 188.187 151.08C188.187 140.755 195.859 132.385 205.323 132.385C214.788 132.385 222.461 140.755 222.461 151.08" fill="url(#paint49_linear_3_48)"/>
<path id="path992" d="M214.218 146.804H209.981V142.181C209.981 140.961 209.075 139.972 207.956 139.972H202.777C201.658 139.972 200.751 140.961 200.751 142.181V146.804H196.514C195.396 146.804 194.489 147.793 194.489 149.013V154.663C194.489 155.882 195.396 156.872 196.514 156.872H200.751V161.495C200.751 162.715 201.658 163.704 202.777 163.704H207.956C209.075 163.704 209.981 162.715 209.981 161.495V156.872H214.218C215.337 156.872 216.243 155.882 216.243 154.663V149.013C216.243 147.793 215.337 146.804 214.218 146.804Z" fill="url(#paint50_linear_3_48)"/>
</g>
</g>
<defs>
<linearGradient id="paint0_linear_3_48" x1="17.078" y1="95.7001" x2="256.982" y2="95.7001" gradientUnits="userSpaceOnUse">
<stop stop-color="#C9CDF2"/>
<stop offset="1" stop-color="#E9EFFD"/>
</linearGradient>
<linearGradient id="paint1_linear_3_48" x1="131.55" y1="182.399" x2="133.137" y2="53.4322" gradientUnits="userSpaceOnUse">
<stop stop-color="#09005D"/>
<stop offset="1" stop-color="#1A0F91"/>
</linearGradient>
<linearGradient id="paint2_linear_3_48" x1="150.274" y1="88.9464" x2="-11.7611" y2="278.956" gradientUnits="userSpaceOnUse">
<stop stop-color="#4042E2"/>
<stop offset="1" stop-color="#4F52FF"/>
</linearGradient>
<linearGradient id="paint3_linear_3_48" x1="131.55" y1="182.399" x2="133.137" y2="53.4322" gradientUnits="userSpaceOnUse">
<stop stop-color="#8480AE"/>
<stop offset="1" stop-color="#8D87C8"/>
</linearGradient>
<linearGradient id="paint4_linear_3_48" x1="107.454" y1="118.945" x2="156.681" y2="118.945" gradientUnits="userSpaceOnUse">
<stop stop-color="#FE7062"/>
<stop offset="1" stop-color="#FF928E"/>
</linearGradient>
<linearGradient id="paint5_linear_3_48" x1="107.454" y1="118.945" x2="156.681" y2="118.945" gradientUnits="userSpaceOnUse">
<stop stop-color="#FFC4BE"/>
<stop offset="1" stop-color="#FFD2D0"/>
</linearGradient>
<linearGradient id="paint6_linear_3_48" x1="132.141" y1="72.72" x2="133.199" y2="107.624" gradientUnits="userSpaceOnUse">
<stop stop-color="#09005D"/>
<stop offset="1" stop-color="#1A0F91"/>
</linearGradient>
<linearGradient id="paint7_linear_3_48" x1="128.828" y1="21.1806" x2="26.7105" y2="87.6743" gradientUnits="userSpaceOnUse">
<stop stop-color="#FE7062"/>
<stop offset="1" stop-color="#FF928E"/>
</linearGradient>
<linearGradient id="paint8_linear_3_48" x1="147.776" y1="-13.4922" x2="128.949" y2="55.5403" gradientUnits="userSpaceOnUse">
<stop stop-color="#FE7062"/>
<stop offset="1" stop-color="#FF928E"/>
</linearGradient>
<linearGradient id="paint9_linear_3_48" x1="129.503" y1="26.2521" x2="88.9978" y2="82.6347" gradientUnits="userSpaceOnUse">
<stop stop-color="#FE7062"/>
<stop offset="1" stop-color="#FF928E"/>
</linearGradient>
<linearGradient id="paint10_linear_3_48" x1="90.3689" y1="26.9176" x2="96.062" y2="25.4219" gradientUnits="userSpaceOnUse">
<stop stop-color="#E1473D"/>
<stop offset="1" stop-color="#E9605A"/>
</linearGradient>
<linearGradient id="paint11_linear_3_48" x1="34.3029" y1="99.0366" x2="35.7925" y2="98.6453" gradientUnits="userSpaceOnUse">
<stop stop-color="#E1473D"/>
<stop offset="1" stop-color="#E9605A"/>
</linearGradient>
<linearGradient id="paint12_linear_3_48" x1="71.8028" y1="95.0583" x2="73.2925" y2="94.6669" gradientUnits="userSpaceOnUse">
<stop stop-color="#E1473D"/>
<stop offset="1" stop-color="#E9605A"/>
</linearGradient>
<linearGradient id="paint13_linear_3_48" x1="177.093" y1="54.3939" x2="178.583" y2="54.0026" gradientUnits="userSpaceOnUse">
<stop stop-color="#E1473D"/>
<stop offset="1" stop-color="#E9605A"/>
</linearGradient>
<linearGradient id="paint14_linear_3_48" x1="143.354" y1="72.6885" x2="144.844" y2="72.2972" gradientUnits="userSpaceOnUse">
<stop stop-color="#E1473D"/>
<stop offset="1" stop-color="#E9605A"/>
</linearGradient>
<linearGradient id="paint15_linear_3_48" x1="181.542" y1="85.3765" x2="212.47" y2="52.4696" gradientUnits="userSpaceOnUse">
<stop stop-color="#4042E2"/>
<stop offset="1" stop-color="#4F52FF"/>
</linearGradient>
<linearGradient id="paint16_linear_3_48" x1="241.641" y1="9.74298" x2="203.917" y2="35.6776" gradientUnits="userSpaceOnUse">
<stop stop-color="#FE7062"/>
<stop offset="1" stop-color="#FF928E"/>
</linearGradient>
<linearGradient id="paint17_linear_3_48" x1="246.547" y1="16.8764" x2="208.822" y2="42.8125" gradientUnits="userSpaceOnUse">
<stop stop-color="#FE7062"/>
<stop offset="1" stop-color="#FF928E"/>
</linearGradient>
<linearGradient id="paint18_linear_3_48" x1="244.112" y1="13.3333" x2="206.387" y2="39.2699" gradientUnits="userSpaceOnUse">
<stop stop-color="#FE7062"/>
<stop offset="1" stop-color="#FF928E"/>
</linearGradient>
<linearGradient id="paint19_linear_3_48" x1="245.414" y1="15.2291" x2="207.689" y2="41.1642" gradientUnits="userSpaceOnUse">
<stop stop-color="#FE7062"/>
<stop offset="1" stop-color="#FF928E"/>
</linearGradient>
<linearGradient id="paint20_linear_3_48" x1="249.203" y1="20.7418" x2="211.479" y2="46.6765" gradientUnits="userSpaceOnUse">
<stop stop-color="#FE7062"/>
<stop offset="1" stop-color="#FF928E"/>
</linearGradient>
<linearGradient id="paint21_linear_3_48" x1="250.184" y1="22.1649" x2="212.459" y2="48.1009" gradientUnits="userSpaceOnUse">
<stop stop-color="#FE7062"/>
<stop offset="1" stop-color="#FF928E"/>
</linearGradient>
<linearGradient id="paint22_linear_3_48" x1="244.936" y1="14.5345" x2="207.211" y2="40.4691" gradientUnits="userSpaceOnUse">
<stop stop-color="#FE7062"/>
<stop offset="1" stop-color="#FF928E"/>
</linearGradient>
<linearGradient id="paint23_linear_3_48" x1="249.842" y1="21.6679" x2="212.117" y2="47.6044" gradientUnits="userSpaceOnUse">
<stop stop-color="#FE7062"/>
<stop offset="1" stop-color="#FF928E"/>
</linearGradient>
<linearGradient id="paint24_linear_3_48" x1="247.406" y1="18.1248" x2="209.681" y2="44.0609" gradientUnits="userSpaceOnUse">
<stop stop-color="#FE7062"/>
<stop offset="1" stop-color="#FF928E"/>
</linearGradient>
<linearGradient id="paint25_linear_3_48" x1="249.789" y1="21.594" x2="212.065" y2="47.5291" gradientUnits="userSpaceOnUse">
<stop stop-color="#FE7062"/>
<stop offset="1" stop-color="#FF928E"/>
</linearGradient>
<linearGradient id="paint26_linear_3_48" x1="252.499" y1="25.5346" x2="214.774" y2="51.4706" gradientUnits="userSpaceOnUse">
<stop stop-color="#FE7062"/>
<stop offset="1" stop-color="#FF928E"/>
</linearGradient>
<linearGradient id="paint27_linear_3_48" x1="253.476" y1="26.9564" x2="215.751" y2="52.8911" gradientUnits="userSpaceOnUse">
<stop stop-color="#FE7062"/>
<stop offset="1" stop-color="#FF928E"/>
</linearGradient>
<linearGradient id="paint28_linear_3_48" x1="206.221" y1="140.193" x2="237.149" y2="107.286" gradientUnits="userSpaceOnUse">
<stop stop-color="#4042E2"/>
<stop offset="1" stop-color="#4F52FF"/>
</linearGradient>
<linearGradient id="paint29_linear_3_48" x1="256.944" y1="71.7515" x2="241.221" y2="89.3171" gradientUnits="userSpaceOnUse">
<stop stop-color="#FE7062"/>
<stop offset="1" stop-color="#FF928E"/>
</linearGradient>
<linearGradient id="paint30_linear_3_48" x1="260.75" y1="75.1576" x2="245.027" y2="92.7233" gradientUnits="userSpaceOnUse">
<stop stop-color="#FE7062"/>
<stop offset="1" stop-color="#FF928E"/>
</linearGradient>
<linearGradient id="paint31_linear_3_48" x1="89.8149" y1="122.65" x2="82.3324" y2="138.255" gradientUnits="userSpaceOnUse">
<stop stop-color="#A22B25"/>
<stop offset="1" stop-color="#C0423C"/>
</linearGradient>
<linearGradient id="paint32_linear_3_48" x1="71.0859" y1="207.755" x2="73.7251" y2="230.738" gradientUnits="userSpaceOnUse">
<stop stop-color="#09005D"/>
<stop offset="1" stop-color="#1A0F91"/>
</linearGradient>
<linearGradient id="paint33_linear_3_48" x1="82.3231" y1="191.359" x2="77.2359" y2="136.855" gradientUnits="userSpaceOnUse">
<stop stop-color="#A22B25"/>
<stop offset="1" stop-color="#C0423C"/>
</linearGradient>
<linearGradient id="paint34_linear_3_48" x1="83.8519" y1="206.288" x2="86.491" y2="229.271" gradientUnits="userSpaceOnUse">
<stop stop-color="#09005D"/>
<stop offset="1" stop-color="#1A0F91"/>
</linearGradient>
<linearGradient id="paint35_linear_3_48" x1="73.7122" y1="192.171" x2="68.6236" y2="137.653" gradientUnits="userSpaceOnUse">
<stop stop-color="#A22B25"/>
<stop offset="1" stop-color="#C0423C"/>
</linearGradient>
<linearGradient id="paint36_linear_3_48" x1="82.2173" y1="136.319" x2="79.6756" y2="157.936" gradientUnits="userSpaceOnUse">
<stop stop-color="#FE7062"/>
<stop offset="1" stop-color="#FF928E"/>
</linearGradient>
<linearGradient id="paint37_linear_3_48" x1="93.2637" y1="95.8006" x2="84.9001" y2="125.509" gradientUnits="userSpaceOnUse">
<stop stop-color="#09005D"/>
<stop offset="1" stop-color="#1A0F91"/>
</linearGradient>
<linearGradient id="paint38_linear_3_48" x1="82.7926" y1="137.56" x2="81.8389" y2="131.165" gradientUnits="userSpaceOnUse">
<stop stop-color="#A22B25"/>
<stop offset="1" stop-color="#C0423C"/>
</linearGradient>
<linearGradient id="paint39_linear_3_48" x1="79.4784" y1="140.687" x2="74.1368" y2="140.687" gradientUnits="userSpaceOnUse">
<stop stop-color="#A22B25"/>
<stop offset="1" stop-color="#C0423C"/>
</linearGradient>
<linearGradient id="paint40_linear_3_48" x1="84.8222" y1="129.286" x2="76.8371" y2="116.259" gradientUnits="userSpaceOnUse">
<stop stop-color="#A22B25"/>
<stop offset="1" stop-color="#C0423C"/>
</linearGradient>
<linearGradient id="paint41_linear_3_48" x1="82.5774" y1="117.104" x2="78.5087" y2="126.46" gradientUnits="userSpaceOnUse">
<stop stop-color="#09005D"/>
<stop offset="1" stop-color="#1A0F91"/>
</linearGradient>
<linearGradient id="paint42_linear_3_48" x1="83.3134" y1="117.424" x2="79.2448" y2="126.78" gradientUnits="userSpaceOnUse">
<stop stop-color="#09005D"/>
<stop offset="1" stop-color="#1A0F91"/>
</linearGradient>
<linearGradient id="paint43_linear_3_48" x1="83.3288" y1="130.201" x2="75.3428" y2="117.174" gradientUnits="userSpaceOnUse">
<stop stop-color="#A22B25"/>
<stop offset="1" stop-color="#C0423C"/>
</linearGradient>
<linearGradient id="paint44_linear_3_48" x1="91.0956" y1="123.264" x2="83.6131" y2="138.87" gradientUnits="userSpaceOnUse">
<stop stop-color="#A22B25"/>
<stop offset="1" stop-color="#C0423C"/>
</linearGradient>
<linearGradient id="paint45_linear_3_48" x1="94.1935" y1="117.323" x2="92.6467" y2="117.323" gradientUnits="userSpaceOnUse">
<stop stop-color="#A22B25"/>
<stop offset="1" stop-color="#C0423C"/>
</linearGradient>
<linearGradient id="paint46_linear_3_48" x1="176.222" y1="186.89" x2="207.15" y2="153.983" gradientUnits="userSpaceOnUse">
<stop stop-color="#4042E2"/>
<stop offset="1" stop-color="#4F52FF"/>
</linearGradient>
<linearGradient id="paint47_linear_3_48" x1="186.003" y1="148.236" x2="186.703" y2="148.236" gradientUnits="userSpaceOnUse">
<stop stop-color="#DAE3FE"/>
<stop offset="1" stop-color="#E9EFFD"/>
</linearGradient>
<linearGradient id="paint48_linear_3_48" x1="187.972" y1="135.816" x2="208.468" y2="135.816" gradientUnits="userSpaceOnUse">
<stop stop-color="#DAE3FE"/>
<stop offset="1" stop-color="#E9EFFD"/>
</linearGradient>
<linearGradient id="paint49_linear_3_48" x1="188.187" y1="151.08" x2="222.461" y2="151.08" gradientUnits="userSpaceOnUse">
<stop stop-color="#DAE3FE"/>
<stop offset="1" stop-color="#E9EFFD"/>
</linearGradient>
<linearGradient id="paint50_linear_3_48" x1="222.991" y1="119.351" x2="208.373" y2="141.992" gradientUnits="userSpaceOnUse">
<stop stop-color="#FE7062"/>
<stop offset="1" stop-color="#FF928E"/>
</linearGradient>
</defs>
</svg>
