<svg width="275" height="200" viewBox="0 0 275 200" fill="none" xmlns="http://www.w3.org/2000/svg">
<g id="undraw_artificial_intelligence_re_enpp 1" clip-path="url(#clip0_2_2)">
<path id="Vector" d="M252.824 113.03C259.632 113.03 265.152 104.221 265.152 93.3552C265.152 82.4893 259.632 73.6807 252.824 73.6807C246.015 73.6807 240.495 82.4893 240.495 93.3552C240.495 104.221 246.015 113.03 252.824 113.03Z" fill="#4F2A2A"/>
<path id="Vector_2" d="M252.824 98.5327C254.615 98.5327 256.068 96.2146 256.068 93.3552C256.068 90.4957 254.615 88.1777 252.824 88.1777C251.032 88.1777 249.579 90.4957 249.579 93.3552C249.579 96.2146 251.032 98.5327 252.824 98.5327Z" fill="#E6E6E6"/>
<path id="Vector_3" d="M252.231 93.4657C253.597 95.245 254.014 98.0491 253.76 100.757C253.447 103.727 252.482 106.422 251.036 108.358C249.411 110.663 247.429 112.221 245.516 113.816C243.759 115.247 242.07 116.883 240.463 118.711C234.311 125.846 229.664 136.005 227.004 147.342C224.349 158.66 223.636 171.507 225.654 183.236C226.652 189.04 228.672 195.302 232.434 197.485C235.433 199.226 239.528 198.105 241.055 193.172C242.695 187.874 240.406 181.918 237.459 179.287C233.637 175.878 229.073 178.369 225.636 181.821C221.852 185.62 218.81 191.073 214.859 194.479C213.081 196.06 211.102 196.981 209.07 197.174C207.204 197.291 205.341 196.832 203.584 195.821C199.939 193.702 196.801 189.814 194.61 184.705C192.101 178.884 190.977 171.748 190.772 164.758C190.314 149.119 194.185 134.488 197.292 119.985C198.961 112.432 200.212 104.66 201.029 96.7587C201.806 88.817 202.083 80.771 201.855 72.7412C201.649 65.641 201.21 58.2163 199.246 51.7316C197.52 46.0294 194.364 41.3625 190.374 40.186C188.576 39.6227 186.712 39.9643 185.041 41.1637C184.472 41.578 184.966 42.9171 185.532 42.5048C189.063 39.9344 193.236 42.4354 195.844 46.5856C198.889 51.4321 200.007 58.589 200.504 65.1928C201.62 80.8434 200.741 96.6924 197.919 111.787C195.211 126.466 190.951 140.532 189.968 155.912C189.52 162.93 189.75 170.185 191.156 176.914C192.362 182.909 194.623 188.223 197.67 192.222C200.539 195.923 204.068 198.445 207.783 198.726C211.954 199.041 215.611 196.074 218.846 192.127C222.312 187.9 225.5 182.684 229.698 180.314C231.611 179.233 233.791 178.729 235.756 179.769C237.442 180.688 238.872 182.523 239.796 184.953C240.649 187.217 240.964 190.049 240.186 192.481C239.453 194.769 238.024 196.091 236.477 196.544C234.839 197.007 233.151 196.549 231.7 195.249C230.005 193.704 228.765 191.112 227.896 188.373C226.163 182.911 225.581 176.409 225.493 170.346C225.416 164.425 225.891 158.517 226.904 152.819C228.919 141.292 232.986 130.945 238.612 123.033C240.03 121.063 241.546 119.281 243.146 117.706C244.892 115.99 246.755 114.618 248.534 112.998C250.285 111.404 252.011 109.499 253.216 106.876C254.244 104.628 254.799 101.918 254.802 99.1355C254.82 97.8556 254.661 96.5851 254.335 95.415C254.01 94.2449 253.526 93.2042 252.919 92.3675C252.438 91.7407 251.745 92.8333 252.231 93.4658V93.4657Z" fill="#FFB8B8"/>
<path id="Vector_4" d="M137.135 183.961C141.446 188.408 146.433 190.903 151.563 191.179C151.472 191.525 151.369 191.864 151.255 192.193C150.658 193.952 149.814 195.468 148.789 196.62C147.576 197.983 146.151 198.788 144.671 198.947C143.191 199.106 141.712 198.613 140.395 197.522C139.078 196.431 137.974 194.784 137.204 192.761C136.433 190.738 136.026 188.415 136.026 186.048V183.961H137.135Z" fill="#3F3D56"/>
<path id="Vector_5" d="M167.396 184.572V186.048C167.396 188.92 166.797 191.712 165.693 193.98C164.589 196.249 163.042 197.866 161.298 198.575C159.554 199.285 157.711 199.047 156.061 197.899C154.411 196.75 153.047 194.757 152.186 192.235C152.067 191.897 151.96 191.55 151.865 191.194C152.102 191.204 152.335 191.21 152.572 191.21C157.802 191.219 162.932 188.922 167.396 184.572V184.572Z" fill="#3F3D56"/>
<path id="Vector_6" d="M152.572 99.0504C144.945 99.056 137.621 103.824 132.169 112.336C126.716 120.847 123.567 132.426 123.395 144.595C123.223 156.764 126.041 168.557 131.248 177.453C136.454 186.348 143.635 191.639 151.255 192.193C151.563 192.219 151.875 192.235 152.186 192.235C152.316 192.245 152.442 192.245 152.572 192.245C160.316 192.245 167.743 187.336 173.219 178.597C178.695 169.858 181.772 158.006 181.772 145.648C181.772 133.289 178.695 121.437 173.219 112.698C167.743 103.96 160.316 99.0504 152.572 99.0504V99.0504ZM167.396 184.572C162.932 188.922 157.802 191.219 152.572 191.21C152.335 191.21 152.102 191.204 151.865 191.194C151.764 191.194 151.664 191.189 151.563 191.179C144.707 190.798 138.166 186.494 133.135 179.051C128.104 171.609 124.919 161.526 124.163 150.645C123.406 139.764 125.128 128.812 129.015 119.791C132.901 110.77 138.692 104.282 145.329 101.512C151.966 98.7427 159.006 99.8772 165.162 104.708C171.318 109.539 176.179 117.744 178.857 127.823C181.534 137.902 181.85 149.182 179.746 159.602C177.641 170.022 173.258 178.885 167.396 184.572Z" fill="#3F3D56"/>
<g id="leftchest">
<path id="Vector_7" d="M173.066 134.171H160.305C159.415 134.171 158.563 133.607 157.934 132.604C157.305 131.601 156.952 130.24 156.952 128.821C156.952 127.402 157.305 126.041 157.934 125.038C158.563 124.034 159.415 123.471 160.305 123.471H173.066C173.955 123.471 174.808 124.034 175.437 125.038C176.065 126.041 176.418 127.402 176.418 128.821C176.418 130.24 176.065 131.601 175.437 132.604C174.808 133.607 173.955 134.171 173.066 134.171V134.171Z" fill="#3F3D56"/>
<path id="Vector_8" d="M161.155 131.536C162.095 131.536 162.857 130.321 162.857 128.821C162.857 127.321 162.095 126.106 161.155 126.106C160.216 126.106 159.454 127.321 159.454 128.821C159.454 130.321 160.216 131.536 161.155 131.536Z" fill="#F2F2F2"/>
<path id="Vector_9" d="M166.685 131.536C167.625 131.536 168.387 130.321 168.387 128.821C168.387 127.321 167.625 126.106 166.685 126.106C165.746 126.106 164.984 127.321 164.984 128.821C164.984 130.321 165.746 131.536 166.685 131.536Z" fill="#F2F2F2"/>
<path id="Vector_10" d="M172.215 131.536C173.155 131.536 173.917 130.321 173.917 128.821C173.917 127.321 173.155 126.106 172.215 126.106C171.275 126.106 170.514 127.321 170.514 128.821C170.514 130.321 171.275 131.536 172.215 131.536Z" fill="#6C63FF"/>
</g>
<g id="head">
<path id="Vector_11" d="M178.31 28.5331C178.067 28.4761 177.82 28.4399 177.573 28.414C180.375 38.7187 180.569 50.3539 178.115 60.882C178.362 60.8354 178.605 60.7733 178.849 60.7008C181.225 59.9661 183.36 57.9097 184.875 54.8977C186.39 51.8857 187.186 48.1135 187.121 44.2527C187.057 40.3918 186.135 36.6929 184.522 33.8143C182.908 30.9357 180.707 29.0642 178.31 28.5331V28.5331Z" fill="#3F3D56"/>
<path id="Vector_12" d="M127.571 28.414C127.325 28.4399 127.078 28.4761 126.835 28.5331C124.437 29.0642 122.236 30.9357 120.622 33.8143C119.009 36.6929 118.088 40.3918 118.023 44.2527C117.959 48.1135 118.755 51.8857 120.269 54.8977C121.784 57.9097 123.92 59.9661 126.296 60.7008C126.539 60.7733 126.783 60.8354 127.029 60.882C124.575 50.3539 124.769 38.7187 127.571 28.414V28.414Z" fill="#3F3D56"/>
<path id="Vector_13" d="M178.31 28.5331C175.637 18.3437 170.686 10.1036 164.419 5.41366C158.152 0.723698 151.017 -0.08128 144.399 3.15512C137.781 6.39152 132.153 13.4382 128.608 22.9262C125.064 32.4142 123.856 43.666 125.219 54.4957C126.583 65.3254 130.42 74.9597 135.985 81.527C141.551 88.0942 148.448 91.1254 155.336 90.0318C162.224 88.9381 168.611 83.7977 173.256 75.6091C177.902 67.4205 180.474 56.7684 180.474 45.7223C180.473 39.8205 179.737 33.9778 178.31 28.5331V28.5331ZM178.115 60.882C175.742 71.0629 171.067 79.4575 165.009 84.4135C158.952 89.3695 151.952 90.5279 145.387 87.6608C138.821 84.7936 133.166 78.1086 129.534 68.9214C125.902 59.7342 124.557 48.7103 125.763 38.0195C126.968 27.3287 130.638 17.7453 136.049 11.1555C141.461 4.56575 148.221 1.44696 155.001 2.41296C161.781 3.37896 168.089 8.35978 172.683 16.3751C177.277 24.3904 179.825 34.8597 179.825 45.7223C179.824 50.8975 179.245 56.031 178.115 60.882V60.882Z" fill="#3F3D56"/>
<path id="Vector_14" d="M166.848 35.6262H138.297C136.791 35.6262 135.347 36.5808 134.282 38.28C133.217 39.9792 132.619 42.2838 132.619 44.6868C132.619 47.0898 133.217 49.3944 134.282 51.0936C135.347 52.7928 136.791 53.7474 138.297 53.7474H166.848C168.353 53.7474 169.797 52.7928 170.862 51.0936C171.927 49.3944 172.525 47.0898 172.525 44.6868C172.525 42.2838 171.927 39.9792 170.862 38.28C169.797 36.5808 168.353 35.6262 166.848 35.6262V35.6262Z" fill="#3F3D56"/>
<path id="Vector_15" d="M141.701 47.4306C142.641 47.4306 143.403 46.2149 143.403 44.7153C143.403 43.2157 142.641 42 141.701 42C140.762 42 140 43.2157 140 44.7153C140 46.2149 140.762 47.4306 141.701 47.4306Z" fill="#6C63FF"/>
<path id="Vector_16" d="M164.701 47.4306C165.641 47.4306 166.403 46.2149 166.403 44.7153C166.403 43.2157 165.641 42 164.701 42C163.762 42 163 43.2157 163 44.7153C163 46.2149 163.762 47.4306 164.701 47.4306Z" fill="#6C63FF"/>
</g>
<g id="leaf">
<path id="Vector_17" d="M53.4107 197.623C56.3283 193.689 58.1004 187.474 57.6357 181.424C57.1709 175.374 54.2924 169.812 50.5586 168.527C46.8248 167.242 42.5685 170.799 41.4344 176.619C40.8102 165.397 40.091 153.705 36.3523 144.149C32.9671 135.496 27.1037 129.304 20.7491 128.196C14.3946 127.089 7.70403 131.272 3.74092 139.276C-0.222182 147.28 -1.19254 158.916 1.58312 168.106C3.62785 174.875 7.39497 179.913 11.342 184.012C23.9343 197.087 39.555 201.505 54.4183 198.015L53.4107 197.623Z" fill="#30D541"/>
<path id="Vector_18" d="M10.0248 131.504C15.2681 138.319 20.0783 145.942 24.3858 154.261C28.6939 162.572 32.4868 171.53 35.7111 181.01C37.5134 186.327 39.1323 191.798 40.5609 197.397C40.8521 198.536 39.6931 199.032 39.4051 197.905C36.8749 188.034 33.7445 178.582 30.0588 169.685C26.391 160.821 22.1931 152.545 17.5239 144.974C14.883 140.694 12.0966 136.648 9.17733 132.857C8.57897 132.079 9.43141 130.733 10.0248 131.504V131.504Z" fill="#39BF3E"/>
</g>
<path id="Vector_19" d="M52.4215 34.1714C57.9762 34.1714 62.4791 26.9855 62.4791 18.1212C62.4791 9.25691 57.9762 2.07099 52.4215 2.07099C46.8669 2.07099 42.364 9.25691 42.364 18.1212C42.364 26.9855 46.8669 34.1714 52.4215 34.1714Z" fill="#2F2E41"/>
<path id="Vector_20" d="M89.9321 76.8915C89.7394 77.354 89.5044 77.7681 89.235 78.1199C88.847 78.6304 88.3957 79.0044 87.9108 79.2172C87.4259 79.43 86.9183 79.4769 86.4212 79.3548C85.9242 79.2327 85.4489 78.9444 85.0265 78.5087C84.6042 78.0731 84.2442 77.4999 83.9704 76.8268C83.9069 76.6699 83.8488 76.5079 83.7961 76.3412L67.9474 73.9011C66.6965 73.7009 65.5195 72.8623 64.591 71.5099C63.6624 70.1576 63.0319 68.3634 62.793 66.3939L61.8934 58.8259L68.0786 57.2903L69.1886 63.3524L84.6409 69.4096C84.7606 69.242 84.8875 69.088 85.0206 68.9487C85.7099 68.2349 86.5324 67.9224 87.3493 68.064C88.1663 68.2056 88.9275 68.7926 89.5047 69.726C90.0819 70.6594 90.4396 71.882 90.5174 73.1874C90.5953 74.4928 90.3886 75.8011 89.9321 76.8915L89.9321 76.8915Z" fill="#FFB8B8"/>
<path id="Vector_21" d="M69.5685 62.4374L62.6593 65.4159C62.2855 65.5763 61.8871 65.4935 61.5515 65.1858C61.2158 64.878 60.9704 64.3704 60.8691 63.7742L58.4491 49.4782C58.1899 47.9469 58.2951 46.3166 58.7444 44.9018C59.1938 43.4869 59.9555 42.3877 60.8827 41.816C61.8099 41.2443 62.8369 41.2407 63.7656 41.8059C64.6944 42.3711 65.4591 43.4649 65.9124 44.8766L70.4871 59.1257C70.5863 59.4346 70.641 59.775 70.6472 60.122C70.6534 60.469 70.6109 60.8138 70.5229 61.1312C70.4348 61.4487 70.3034 61.7307 70.1383 61.9567C69.9732 62.1826 69.7785 62.3469 69.5685 62.4374V62.4374Z" fill="#2F2E41"/>
<path id="Vector_22" d="M65.5663 193.707H69.5436L71.4361 169.223L65.5653 169.224L65.5663 193.707Z" fill="#FFB8B8"/>
<path id="Vector_23" d="M77.2148 199.6L64.714 199.601L64.7138 191.893L72.3848 191.893C73.6657 191.893 74.8942 192.705 75.8 194.15C76.7059 195.596 77.2148 197.556 77.2148 199.6V199.6V199.6Z" fill="#2F2E41"/>
<path id="Vector_24" d="M30.115 187.521L33.8363 189.763L41.0265 167.925L35.5344 164.616L30.115 187.521Z" fill="#FFB8B8"/>
<path id="Vector_25" d="M39.708 199.601L28.013 192.554L29.7191 185.344L36.8956 189.668C38.094 190.39 39.0635 191.842 39.5909 193.705C40.1184 195.568 40.1605 197.689 39.708 199.601V199.601L39.708 199.601Z" fill="#2F2E41"/>
<path id="Vector_26" d="M65.4407 188.02C65.1323 188.02 64.832 187.863 64.5828 187.574C64.3336 187.284 64.1483 186.876 64.0535 186.408L53.9088 136.412C53.8787 136.263 53.8214 136.133 53.7443 136.037C53.6672 135.942 53.5739 135.885 53.4765 135.876C53.3791 135.866 53.2821 135.903 53.198 135.982C53.114 136.061 53.0468 136.179 53.0052 136.32L38.9459 184.057C38.7936 184.573 38.5281 184.982 38.1995 185.207C37.871 185.432 37.5022 185.456 37.163 185.277L31.6258 182.331C31.2742 182.143 30.9804 181.748 30.8041 181.227C30.6277 180.707 30.5819 180.098 30.676 179.526L39.288 127.468C40.1891 121.953 40.8401 116.343 41.2357 110.679C41.8397 101.352 44.5797 92.7098 48.9304 86.4083C50.83 83.6309 52.0649 79.8852 52.4232 75.8137L52.4464 75.5533L65.0586 78.7311L73.0474 182.762C73.0887 183.318 73.0034 183.88 72.8071 184.345C72.6108 184.81 72.3165 185.146 71.9777 185.294L65.8219 187.939C65.6976 187.993 65.5694 188.02 65.4407 188.02V188.02Z" fill="#2F2E41"/>
<path id="Vector_27" d="M56.417 34.095C60.8179 34.095 64.3855 28.4016 64.3855 21.3785C64.3855 14.3554 60.8179 8.66209 56.417 8.66209C52.0161 8.66209 48.4485 14.3554 48.4485 21.3785C48.4485 28.4016 52.0161 34.095 56.417 34.095Z" fill="#FFB8B8"/>
<path id="Vector_28" d="M64.2748 80.9492C64.2498 80.9492 64.2249 80.9482 64.1997 80.9462L51.6972 79.9486C51.3482 79.9235 51.0166 79.6984 50.7632 79.3147C50.5099 78.9309 50.3517 78.4143 50.3177 77.8594L48.6097 51.2844C48.4847 49.3383 48.6597 47.3729 49.1197 45.5594C49.5796 43.746 50.3105 42.1396 51.2486 40.8802C52.1867 39.6208 53.3035 38.7466 54.5018 38.3337C55.7001 37.9209 56.9435 37.9819 58.1236 38.5116H58.1237C59.1014 38.9389 60.0125 39.6869 60.7989 40.7077C69.5938 52.2339 66.758 73.1178 65.6793 79.2438C65.5947 79.7345 65.4115 80.1673 65.1577 80.4754C64.9039 80.7836 64.5937 80.9501 64.2748 80.9492V80.9492Z" fill="#6C63FF"/>
<path id="Vector_29" d="M53.398 98.7939C53.0499 98.794 52.7038 98.7112 52.371 98.5481C51.8897 98.3154 51.4446 97.923 51.065 97.3966C50.6854 96.8702 50.3797 96.2217 50.1681 95.4937C49.9564 94.7657 49.8436 93.9745 49.8369 93.172C49.8303 92.3695 49.9299 91.5738 50.1294 90.837C50.1761 90.6659 50.2284 90.4988 50.2862 90.3365L42.7802 67.9277C42.1918 66.1549 41.9773 64.1265 42.1685 62.1437C42.3597 60.1609 42.9465 58.3294 43.8417 56.921L47.2917 51.5337L51.519 58.901L48.9711 63.7336L54.3705 87.6193C54.5242 87.6855 54.6748 87.7688 54.8212 87.8686C55.5755 88.389 56.1941 89.3087 56.5728 90.4725C56.9514 91.6363 57.0668 92.9729 56.8996 94.2568C56.7323 95.5407 56.2926 96.6931 55.6547 97.5197C55.0168 98.3463 54.2197 98.7963 53.398 98.7939L53.398 98.7939Z" fill="#FFB8B8"/>
<path id="Vector_30" d="M49.659 63.7316L44.2778 56.2016C43.9871 55.7938 43.8096 55.2187 43.7842 54.6023C43.7589 53.9859 43.8878 53.3786 44.1427 52.9137L50.2606 41.7796C50.9159 40.5869 51.8247 39.8236 52.8118 39.637C53.7988 39.4503 54.7942 39.8535 55.6061 40.7687C56.4179 41.6839 56.9887 43.0464 57.2083 44.5934C57.4279 46.1404 57.2808 47.7624 56.7954 49.1466L51.8956 63.1177C51.7893 63.4206 51.6421 63.6819 51.4644 63.8823C51.2868 64.0827 51.0834 64.2172 50.869 64.2761C50.6546 64.3349 50.4347 64.3166 50.2254 64.2224C50.016 64.1281 49.8225 63.9604 49.659 63.7315V63.7316Z" fill="#2F2E41"/>
<path id="Vector_31" d="M51.2892 33.731C52.0163 34.1424 52.9076 34.5051 53.4797 33.6518C54.0382 32.8188 53.9365 31.2955 53.6075 30.1733C53.2784 29.0511 52.7681 28.0525 52.6117 26.831C52.3875 25.0804 52.9672 23.2618 53.7948 22.1205C54.6224 20.9792 55.6642 20.3796 56.6811 19.8027L62.2592 16.6384C63.64 15.8551 65.1279 14.935 65.9006 12.8737C67.0186 9.89118 65.9965 5.6278 64.1626 3.88743C62.3287 2.14705 60.0123 2.47127 58.0337 3.69502C56.9394 4.37186 55.8984 5.30453 54.7667 5.78098C52.5332 6.7213 49.9936 5.87773 48.0309 7.88743C46.3224 9.63686 45.5299 13.2065 45.5874 16.5464C45.645 19.8864 46.4156 23.0672 47.2284 26.1218C47.712 27.939 48.2286 29.7772 49.0477 31.2226C49.8667 32.668 51.0504 33.6791 52.2327 33.4131L51.2892 33.731Z" fill="#2F2E41"/>
<path id="hair" d="M43.9862 20.7099C47.5698 20.7099 50.4749 16.0739 50.4749 10.355C50.4749 4.63608 47.5698 0 43.9862 0C40.4025 0 37.4974 4.63608 37.4974 10.355C37.4974 16.0739 40.4025 20.7099 43.9862 20.7099Z" fill="#2F2E41"/>
<path id="Path 22" d="M96.6138 70.1292L96.4987 70.104L96.9323 65.07C96.9988 64.2973 96.8703 63.514 96.575 62.8925C96.2797 62.271 95.8417 61.8622 95.3575 61.7559L88.6742 60.2898C88.19 60.1836 87.6992 60.3887 87.3097 60.86C86.9202 61.3313 86.6641 62.0302 86.5975 62.8029L84.2186 90.4198C84.152 91.1926 84.2805 91.9759 84.5759 92.5974C84.8712 93.2189 85.3091 93.6277 85.7934 93.734L92.4766 95.2001C92.9609 95.3063 93.4517 95.1012 93.8411 94.6299C94.2306 94.1586 94.4868 93.4597 94.5534 92.687L96.19 73.6872L96.3051 73.7125L96.6138 70.1292Z" fill="#3F3D56"/>
<path id="Path 23" d="M95.1474 63.2328L94.3153 63.0502C94.3407 63.2084 94.3413 63.374 94.3171 63.5326C94.2929 63.6912 94.2447 63.8379 94.1766 63.9597C94.1085 64.0815 94.0227 64.1747 93.9267 64.2311C93.8307 64.2875 93.7275 64.3054 93.6262 64.2831L89.9742 63.482C89.8729 63.4597 89.7765 63.3981 89.6936 63.3024C89.6108 63.2068 89.5439 63.0801 89.499 62.9335C89.454 62.7869 89.4323 62.6249 89.4358 62.4618C89.4394 62.2986 89.468 62.1394 89.5191 61.9981L88.7419 61.8276C88.5712 61.7901 88.3974 61.8067 88.2306 61.8764C88.0639 61.9461 87.9073 62.0675 87.77 62.2337C87.6326 62.4 87.5171 62.6077 87.4301 62.8452C87.343 63.0827 87.2861 63.3452 87.2626 63.6177L84.9968 89.9215C84.9494 90.472 85.041 91.0299 85.2513 91.4726C85.4617 91.9153 85.7737 92.2066 86.1186 92.2822L92.524 93.6874C92.8689 93.7631 93.2186 93.617 93.496 93.2813C93.7734 92.9455 93.9559 92.4477 94.0033 91.8973V91.8973L96.2691 65.5934C96.3165 65.043 96.225 64.485 96.0146 64.0423C95.8043 63.5996 95.4923 63.3084 95.1474 63.2327V63.2328Z" fill="white"/>
<path id="Vector_32" d="M90.6046 85.0712C92.5756 85.0712 94.1734 82.5214 94.1734 79.376C94.1734 76.2306 92.5756 73.6807 90.6046 73.6807C88.6336 73.6807 87.0358 76.2306 87.0358 79.376C87.0358 82.5214 88.6336 85.0712 90.6046 85.0712Z" fill="#6C63FF"/>
<path id="Vector_33" d="M90.2508 81.5486C90.1705 81.5488 90.0924 81.5074 90.0281 81.4305L90.0241 81.4257L89.1854 80.401C89.1464 80.3536 89.1136 80.2944 89.0889 80.2268C89.0642 80.1591 89.0481 80.0844 89.0416 80.0068C89.035 79.9292 89.0382 79.8503 89.0508 79.7746C89.0634 79.699 89.0852 79.628 89.1151 79.5659C89.1449 79.5038 89.1822 79.4516 89.2246 79.4125C89.2671 79.3734 89.3141 79.348 89.3627 79.3379C89.4113 79.3278 89.4608 79.3331 89.5081 79.3535C89.5555 79.374 89.5998 79.4091 89.6387 79.457L90.1819 80.1218L91.4657 77.45C91.4955 77.388 91.5326 77.336 91.575 77.2969C91.6173 77.2579 91.6641 77.2325 91.7126 77.2223C91.7611 77.212 91.8104 77.2172 91.8577 77.2374C91.905 77.2576 91.9493 77.2924 91.9881 77.3399L91.9801 77.3572L91.9883 77.3402C92.0666 77.4362 92.1179 77.578 92.1308 77.7343C92.1437 77.8906 92.1173 78.0486 92.0573 78.1739L90.5473 81.3165C90.5123 81.3889 90.4674 81.4475 90.416 81.4878C90.3646 81.528 90.3081 81.5488 90.2508 81.5486Z" fill="white"/>
<path id="Vector_34" d="M274.614 200H2.31487C2.21261 200 2.11465 199.934 2.04244 199.819C1.97024 199.703 1.92969 199.547 1.92969 199.384C1.92969 199.22 1.97024 199.064 2.04244 198.948C2.11465 198.833 2.21261 198.768 2.31487 198.767H274.614C274.716 198.767 274.814 198.832 274.887 198.948C274.959 199.063 275 199.22 275 199.384C275 199.547 274.959 199.704 274.887 199.819C274.814 199.935 274.716 200 274.614 200Z" fill="#CCCCCC"/>
</g>
<defs>
<clipPath id="clip0_2_2">
<rect width="275" height="200" fill="white"/>
</clipPath>
</defs>
</svg>
