<svg width="277" height="200" viewBox="0 0 277 200" fill="none" xmlns="http://www.w3.org/2000/svg">
<g id="undraw_modern_woman_re_d8bx 1">
<g id="hill">
<path id="Vector" d="M46.5705 146.285C47.6829 144.791 48.1374 144.441 49.2345 142.934C58.1683 130.644 66.5653 117.94 74.4256 104.82C79.7646 95.9098 84.8388 86.8283 89.6484 77.5758C91.9381 73.177 94.165 68.7437 96.3292 64.2759C98.0085 60.8117 99.6504 57.3267 101.255 53.8211C101.714 52.8198 102.159 51.8139 102.603 50.8057C103.648 48.4348 104.674 46.0524 105.776 43.7138C107.031 41.0483 108.559 38.2539 110.864 36.4631C111.913 35.6146 113.167 35.1013 114.48 34.983C116.356 34.8541 118.088 35.6781 119.715 36.5782C131.634 43.2425 142.76 51.4024 152.853 60.883C162.962 70.3255 171.997 80.9933 179.775 92.6688C180.013 93.0302 180.576 92.6849 180.336 92.3213C179.39 90.8987 178.426 89.4915 177.442 88.0997C165.216 70.8053 150.225 55.933 133.155 44.1626C130.283 42.1831 127.357 40.2963 124.377 38.5025C122.875 37.5978 121.366 36.7047 119.832 35.8669C118.328 35.0451 116.731 34.3063 115.013 34.2786C109.165 34.182 106.137 41.2255 104.057 45.965C103.404 47.4565 102.742 48.9435 102.073 50.4259C99.543 56.0538 96.9157 61.6304 94.191 67.1555C92.5094 70.5668 90.7911 73.9581 89.0359 77.3295C83.5736 87.8281 77.7678 98.1141 71.6186 108.188C63.4727 121.531 55.3917 133.319 46.1117 145.797C45.8563 146.142 46.3129 146.635 46.5705 146.285Z" fill="#FFB8B8"/>
<path id="Vector_2" d="M153.431 57.405C153.771 57.0022 154.108 56.5994 154.45 56.1965C157.147 53.0246 160.04 49.8896 163.743 48.0711C165.509 47.1767 167.436 46.7015 169.392 46.6785C171.413 46.6854 173.389 47.2494 175.257 48.0389C176.14 48.4141 177.003 48.8399 177.854 49.2934C178.825 49.8136 179.78 50.3683 180.73 50.9277C182.513 51.9773 184.273 53.073 186.01 54.2147C189.466 56.4866 192.814 58.9319 196.054 61.5506C197.734 62.9086 199.378 64.3112 200.989 65.7583C202.486 67.1025 203.954 68.4829 205.391 69.8992C205.698 70.2008 206.157 69.7128 205.849 69.4113C205.471 69.0361 205.088 68.6632 204.704 68.2949C203.622 67.2545 202.523 66.234 201.406 65.2335C199.37 63.4058 197.281 61.6488 195.139 59.9623C191.808 57.3382 188.363 54.8922 184.803 52.6241C183.024 51.4916 181.22 50.4067 179.392 49.3693C178.84 49.0563 178.282 48.7502 177.717 48.4601C176.436 47.7725 175.104 47.196 173.735 46.7361C171.796 46.0689 169.745 45.8546 167.721 46.1077C165.767 46.41 163.884 47.1027 162.172 48.1494C158.536 50.3108 155.716 53.653 152.972 56.9147C152.695 57.2462 153.152 57.7365 153.431 57.405Z" fill="#FCBEBE"/>
<path id="Vector_3" d="M78.935 90.2744L70.2228 86.8852L65.8971 85.2024C64.4883 84.6544 63.0829 84.0304 61.6265 83.638C60.3609 83.2535 59.0171 83.2717 57.7611 83.6904C56.6411 84.1314 55.6158 84.8073 54.7462 85.6782C53.8579 86.5483 53.0314 87.4871 52.2734 88.487C51.3316 89.6908 50.4037 90.9072 49.4717 92.1195C45.6251 97.123 41.8036 102.148 38.0072 107.195C34.2109 112.242 30.44 117.31 26.6945 122.4C22.9399 127.502 19.211 132.626 15.508 137.771C15.0544 138.401 14.6012 139.032 14.1483 139.663C13.8981 140.011 13.334 139.668 13.5877 139.314C17.318 134.117 21.0744 128.942 24.8567 123.788C28.6483 118.622 32.4662 113.477 36.3102 108.355C40.1542 103.232 44.0241 98.1319 47.92 93.0539C48.8906 91.7888 49.8628 90.5251 50.8366 89.2628C51.658 88.198 52.4702 87.1217 53.3712 86.1306C55.025 84.3114 57.0912 82.7038 59.5645 82.6601C61.0186 82.6345 62.4259 83.1253 63.777 83.6451C65.2335 84.2056 66.6865 84.7765 68.1411 85.3423L76.9143 88.7553L79.1076 89.6085C79.4968 89.7599 79.3287 90.4275 78.935 90.2744V90.2744Z" fill="#FFB8B8"/>
</g>
<g id="air">
<path id="Vector_4" d="M108.399 49.6587C110.209 46.4737 112.355 43.0732 115.715 42.0332C119.606 40.8288 123.603 43.2213 126.993 45.5822C137.132 52.6429 146.897 60.2947 156.241 68.5025L156.231 68.6261C148.956 68.0925 141.681 67.5589 134.406 67.0253C129.149 66.6397 123.712 66.201 119.067 63.5563C117.305 62.5527 115.586 61.2122 113.589 61.1188C111.108 61.0027 108.944 62.8461 107.243 64.772C97.1848 76.1641 94.2741 93.5855 82.9894 103.594C90.1052 84.9296 98.6016 66.8945 108.399 49.6587V49.6587Z" fill="#84CBFF"/>
<path id="Vector_5" d="M164.89 52.0624C169.317 49.6422 174.987 50.1162 179.055 53.1398C171.295 54.5638 163.62 56.4691 156.069 58.846C159.204 56.8916 161.657 53.8294 164.89 52.0624Z" fill="#109BFF"/>
<path id="Vector_6" d="M55.0743 90.3082C55.9319 89.1979 56.8591 88.0353 58.1419 87.5843L59.3395 87.6346C50.2228 104.769 37.9101 119.74 23.157 131.631C33.7961 117.856 44.4352 104.082 55.0743 90.3082Z" fill="#84CBFF"/>
</g>
<g id="building">
<path id="Vector_7" d="M216.301 81.1771C215.921 80.7712 215.469 80.4493 214.971 80.23C214.473 80.0107 213.939 79.8984 213.4 79.8995V77.3584C213.401 76.7768 213.293 76.2009 213.084 75.6635C212.875 75.1262 212.569 74.6379 212.182 74.2267C211.795 73.8154 211.336 73.4893 210.831 73.2669C210.326 73.0445 209.784 72.9303 209.237 72.9307V71.0156H210.228C210.652 71.0156 211.059 70.8366 211.358 70.5178C211.658 70.199 211.826 69.7667 211.826 69.3159C211.826 68.8651 211.658 68.4328 211.358 68.114C211.059 67.7953 210.652 67.6162 210.228 67.6162H209.237V66.2876H208.747V67.6162H207.565C207.141 67.6162 206.734 67.7953 206.435 68.114C206.135 68.4328 205.967 68.8651 205.967 69.3159C205.967 69.7667 206.135 70.199 206.435 70.5178C206.734 70.8366 207.141 71.0156 207.565 71.0156H208.747V72.9307H205.695C205.405 72.9306 205.117 72.9914 204.849 73.1095C204.581 73.2277 204.337 73.4009 204.132 73.6192C203.926 73.8376 203.764 74.0968 203.653 74.3821C203.541 74.6674 203.484 74.9731 203.484 75.2819V79.8995H202.779C201.689 79.8994 200.611 80.1275 199.604 80.5708C198.598 81.0141 197.684 81.6639 196.914 82.4831C196.143 83.3022 195.532 84.2747 195.116 85.3451C194.699 86.4154 194.484 87.5625 194.485 88.721V94.8921C192.977 95.354 191.614 96.2359 190.534 97.4466C189.455 98.6573 188.7 100.153 188.347 101.778H184.711V97.8711H182.507V96.2281H183.86C184.284 96.2281 184.69 96.049 184.99 95.7303C185.29 95.4115 185.458 94.9792 185.458 94.5284C185.458 94.0776 185.29 93.6453 184.99 93.3265C184.69 93.0077 184.284 92.8287 183.86 92.8287H182.507V91.75H182.017V92.8287H181.196C180.773 92.8287 180.366 93.0077 180.066 93.3265C179.767 93.6453 179.598 94.0776 179.598 94.5284C179.598 94.9792 179.767 95.4115 180.066 95.7303C180.366 96.049 180.773 96.2281 181.196 96.2281H182.017V97.8781C181.454 97.9128 180.925 98.1749 180.538 98.6108C180.152 99.0468 179.936 99.6235 179.936 100.223V101.792C177.818 101.917 175.826 102.899 174.369 104.537C172.911 106.176 172.099 108.345 172.099 110.601V146.709H194.485V146.71H217.502V84.2621C217.503 83.689 217.398 83.1214 217.191 82.5919C216.985 82.0625 216.683 81.5816 216.301 81.1771V81.1771Z" fill="#F2F2F2"/>
<path id="Vector_8" d="M170.008 79.8986V77.359C170.008 76.7775 169.9 76.2017 169.691 75.6645C169.481 75.1272 169.175 74.6391 168.788 74.2279C168.402 73.8167 167.943 73.4906 167.438 73.268C166.932 73.0455 166.391 72.931 165.844 72.931V70.4491H166.814C167.238 70.4491 167.644 70.27 167.944 69.9512C168.243 69.6325 168.412 69.2001 168.412 68.7493C168.412 68.2985 168.243 67.8662 167.944 67.5475C167.644 67.2287 167.238 67.0496 166.814 67.0496H165.844V66.289H165.355V67.0496H164.15C163.726 67.0496 163.32 67.2287 163.02 67.5475C162.721 67.8662 162.552 68.2985 162.552 68.7493C162.552 69.2001 162.721 69.6325 163.02 69.9512C163.32 70.27 163.726 70.4491 164.15 70.4491H165.355V72.931H162.301C162.01 72.931 161.723 72.9918 161.454 73.11C161.186 73.2282 160.942 73.4014 160.737 73.6198C160.532 73.8382 160.369 74.0975 160.258 74.3829C160.147 74.6682 160.089 74.9741 160.089 75.2829V79.8986H159.385C157.185 79.8986 155.075 80.8281 153.519 82.4827C151.963 84.1373 151.089 86.3813 151.089 88.7213V94.4378C149.695 95.0767 148.48 96.0885 147.563 97.3748C146.645 98.6611 146.056 100.178 145.853 101.778H141.317V97.8711H139.113V95.6615H139.913C140.337 95.6615 140.743 95.4824 141.043 95.1637C141.343 94.8449 141.511 94.4126 141.511 93.9618C141.511 93.511 141.343 93.0787 141.043 92.7599C140.743 92.4412 140.337 92.2621 139.913 92.2621H139.113V91.75H138.623V92.2621H137.249C136.826 92.2621 136.419 92.4412 136.119 92.7599C135.82 93.0787 135.651 93.511 135.651 93.9618C135.651 94.4126 135.82 94.8449 136.119 95.1637C136.419 95.4824 136.826 95.6615 137.249 95.6615H138.623V97.8781C138.061 97.9128 137.532 98.1749 137.145 98.6108C136.758 99.0468 136.542 99.6235 136.542 100.223V101.792C134.424 101.917 132.432 102.899 130.975 104.537C129.517 106.176 128.705 108.345 128.705 110.601V146.709H174.11V84.2615C174.11 83.6885 174.004 83.1212 173.797 82.5919C173.591 82.0625 173.289 81.5816 172.908 81.1764C172.527 80.7713 172.075 80.4499 171.577 80.2307C171.08 80.0114 170.546 79.8986 170.008 79.8986Z" fill="#F2F2F2"/>
</g>
<path id="Vector_9" d="M229.092 146.903C229.092 146.947 229.084 146.991 229.068 147.032C229.053 147.073 229.029 147.11 229 147.142C228.97 147.173 228.935 147.198 228.897 147.215C228.858 147.232 228.817 147.24 228.775 147.24L70.9147 147.3L70.3607 147.303L37.7812 147.314H37.2432L9.51125 147.325H8.97323L0.316983 147.328C0.232922 147.328 0.152307 147.292 0.0928672 147.229C0.0334272 147.166 3.05176e-05 147.08 3.05176e-05 146.991C3.05176e-05 146.901 0.0334272 146.816 0.0928672 146.753C0.152307 146.689 0.232922 146.654 0.316983 146.654L9.06379 146.651H9.60181L37.3258 146.64H37.8638L70.1902 146.628H70.7416L98.2871 146.617H98.6493L228.775 146.566C228.817 146.566 228.858 146.575 228.897 146.591C228.935 146.608 228.97 146.633 229 146.664C229.029 146.696 229.053 146.733 229.068 146.774C229.084 146.815 229.092 146.859 229.092 146.903Z" fill="#CACACA"/>
<g id="ledtbuildingstrip">
<path id="Vector_10" d="M139.848 117.406H142.909V114.802H139.848V117.406Z" fill="white"/>
<path id="Vector_11" d="M134.827 117.406H137.889V114.802H134.827V117.406Z" fill="white"/>
<path id="Vector_12" d="M139.848 124.048H142.909V121.444H139.848V124.048Z" fill="white"/>
<path id="Vector_13" d="M134.827 124.048H137.889V121.444H134.827V124.048Z" fill="white"/>
<path id="Vector_14" d="M139.848 130.69H142.909V128.086H139.848V130.69Z" fill="white"/>
<path id="Vector_15" d="M134.827 130.69H137.889V128.086H134.827V130.69Z" fill="white"/>
<path id="Vector_16" d="M134.827 137.333H137.889V134.728H134.827V137.333Z" fill="white"/>
<path id="Vector_17" d="M134.827 143.975H137.889V141.37H134.827V143.975Z" fill="white"/>
</g>
<g id="middlebuildingstrip">
<path id="Vector_18" d="M157.64 110.048H167.559V109.267H157.64V110.048Z" fill="#FCBEBE"/>
<path id="Vector_19" d="M157.64 114.867H167.559V114.085H157.64V114.867Z" fill="#FCBEBE"/>
<path id="Vector_20" d="M157.64 119.686H167.559V118.904H157.64V119.686Z" fill="#FCBEBE"/>
</g>
<path id="Vector_21" d="M163.518 76.9683H166.579V74.3636H163.518V76.9683Z" fill="white"/>
<g id="rightmiddlebuildingstrip">
<path id="Vector_22" d="M183.242 124.048H186.303V121.444H183.242V124.048Z" fill="#FFB8B8"/>
<path id="Vector_23" d="M178.221 124.048H181.282V121.444H178.221V124.048Z" fill="#FFB8B8"/>
<path id="Vector_24" d="M183.242 130.69H186.303V128.086H183.242V130.69Z" fill="#FFB8B8"/>
<path id="Vector_25" d="M178.221 130.69H181.282V128.086H178.221V130.69Z" fill="#FFB8B8"/>
<path id="Vector_26" d="M183.242 137.333H186.303V134.728H183.242V137.333Z" fill="#FFB8B8"/>
<path id="Vector_27" d="M178.221 137.333H181.282V134.728H178.221V137.333Z" fill="#FFB8B8"/>
<path id="Vector_28" d="M183.242 143.975H186.303V141.37H183.242V143.975Z" fill="#FFB8B8"/>
<path id="Vector_29" d="M178.221 143.975H181.282V141.37H178.221V143.975Z" fill="#FFB8B8"/>
</g>
<path id="Vector_30" d="M206.912 76.9683H209.973V74.3636H206.912V76.9683Z" fill="white"/>
<path id="sun" d="M156.099 37.8732C160.027 37.8732 163.211 34.4867 163.211 30.3092C163.211 26.1318 160.027 22.7453 156.099 22.7453C152.172 22.7453 148.988 26.1318 148.988 30.3092C148.988 34.4867 152.172 37.8732 156.099 37.8732Z" fill="#FD6584"/>
<g id="cloud">
<path id="Vector_31" d="M172.017 26.728C171.816 26.0283 171.427 25.4065 170.898 24.9389C170.369 24.4713 169.723 24.1783 169.039 24.096C169.024 24.0937 169.009 24.0968 168.994 24.0957C168.974 24.0893 168.953 24.0843 168.933 24.0809C165.681 23.6338 161.926 25.2882 160.571 28.5676C160.24 28.0879 159.805 27.7012 159.302 27.4406C158.799 27.1801 158.245 27.0536 157.686 27.0721C156.965 27.1232 156.277 27.4093 155.714 27.8914C155.152 28.3735 154.743 29.0283 154.543 29.7665C154.521 29.8569 154.528 29.9521 154.561 30.0384C154.594 30.1247 154.652 30.1976 154.726 30.2464C154.941 30.44 155.196 30.5774 155.469 30.6476C156.06 30.7806 156.653 30.9026 157.248 31.0133C158.408 31.2294 159.575 31.404 160.748 31.5373C163.129 31.8087 165.524 31.905 167.917 31.8255C168.714 31.7991 169.483 31.771 170.213 31.3968C170.745 31.1177 171.199 30.6964 171.531 30.1743C171.843 29.6725 172.049 29.1039 172.133 28.5085C172.217 27.9131 172.177 27.3053 172.017 26.728Z" fill="#109BFF"/>
<path id="Vector_32" d="M157.236 36.8132C157.035 36.1136 156.646 35.4917 156.117 35.0241C155.588 34.5565 154.942 34.2636 154.258 34.1813C154.243 34.179 154.228 34.182 154.213 34.181C154.193 34.1745 154.172 34.1696 154.152 34.1661C150.9 33.7191 147.145 35.3734 145.79 38.6528C145.459 38.1732 145.024 37.7864 144.521 37.5258C144.018 37.2653 143.464 37.1388 142.905 37.1574C142.184 37.2084 141.495 37.4945 140.933 37.9767C140.371 38.4588 139.962 39.1135 139.762 39.8518C139.74 39.9422 139.747 40.0374 139.78 40.1237C139.813 40.2099 139.871 40.2828 139.945 40.3317C140.16 40.5253 140.415 40.6627 140.688 40.7328C141.279 40.8659 141.872 40.9878 142.466 41.0986C143.627 41.3146 144.794 41.4893 145.967 41.6226C148.348 41.8939 150.743 41.9902 153.136 41.9108C153.933 41.8844 154.702 41.8562 155.432 41.4821C155.964 41.2029 156.418 40.7816 156.75 40.2595C157.062 39.7577 157.268 39.1891 157.352 38.5937C157.436 37.9983 157.396 37.3906 157.236 36.8132V36.8132Z" fill="#109BFF"/>
</g>
<g id="rightbuildingstrip">
<path id="Vector_33" d="M217.502 85.4632H209.962V87.1629H217.502V85.4632Z" fill="#FCBEBE"/>
<path id="Vector_34" d="M217.502 90.5624H209.962V92.2621H217.502V90.5624Z" fill="#FCBEBE"/>
<path id="Vector_35" d="M217.502 95.6615H209.962V97.3612H217.502V95.6615Z" fill="#FCBEBE"/>
<path id="Vector_36" d="M217.502 100.761H209.962V102.46H217.502V100.761Z" fill="#FCBEBE"/>
<path id="Vector_37" d="M217.502 105.86H209.962V107.56H217.502V105.86Z" fill="#FCBEBE"/>
<path id="Vector_38" d="M217.502 110.959H209.962V112.659H217.502V110.959Z" fill="#FCBEBE"/>
</g>
<g id="girl">
<path id="Vector_39" d="M118.431 14.2333C118.432 15.6162 118.113 16.9781 117.503 18.1994C116.893 19.4207 116.011 20.4642 114.933 21.2381C113.856 22.012 112.616 22.4927 111.323 22.638C110.03 22.7834 108.723 22.589 107.517 22.0718C106.312 21.5546 105.244 20.7304 104.407 19.6717C103.571 18.613 102.991 17.3521 102.72 15.9996C102.449 14.6472 102.493 13.2445 102.851 11.9149C103.208 10.5852 103.867 9.36916 104.769 8.37347L104.807 8.33296C104.871 8.26197 104.934 8.19101 105.001 8.1234C105.001 8.12341 105.002 8.12333 105.002 8.12316C105.003 8.12299 105.003 8.12275 105.003 8.12243C105.004 8.12211 105.004 8.12174 105.004 8.12132C105.004 8.12091 105.004 8.12047 105.004 8.12002C105.087 8.03892 105.169 7.95782 105.255 7.8801C106.403 6.80981 107.816 6.11404 109.326 5.8761C110.836 5.63816 112.379 5.86813 113.769 6.53848C115.159 7.20882 116.339 8.29113 117.165 9.65583C117.992 11.0205 118.432 12.6098 118.431 14.2333V14.2333Z" fill="#2F2E41"/>
<path id="Vector_40" d="M108.531 23.2724C112.21 23.2724 115.192 20.1006 115.192 16.188C115.192 12.2755 112.21 9.1037 108.531 9.1037C104.853 9.1037 101.87 12.2755 101.87 16.188C101.87 20.1006 104.853 23.2724 108.531 23.2724Z" fill="#9E616A"/>
<path id="Vector_41" d="M115.604 18.2084L114.501 18.001C113.884 17.8818 113.316 17.5652 112.873 17.0935C112.431 16.6218 112.134 16.0176 112.022 15.3615L110.946 17.2811L110.898 17.2977C108.333 18.2037 105.663 17.9327 102.739 16.4703C101.903 16.0486 101.092 15.5729 100.311 15.0462L100.253 15.0079L100.248 14.9358C100.099 12.6312 100.585 10.7059 101.618 9.51447C102.014 9.06624 102.495 8.71214 103.029 8.47538C103.563 8.23862 104.138 8.12456 104.716 8.14065C104.758 8.12922 104.795 8.10702 104.826 8.07606C104.841 8.06444 104.856 8.05296 104.871 8.04203V8.03013L104.947 7.99182C105.112 7.90966 105.279 7.83094 105.447 7.75902C106.765 7.21636 108.2 7.08024 109.587 7.36627C110.975 7.65231 112.258 8.34891 113.29 9.37602C115.342 11.4593 116.283 14.9554 115.632 18.076L115.604 18.2084Z" fill="#2F2E41"/>
<path id="hair" d="M129.653 24.2443C127.387 22.9999 130.302 18.4838 129.716 15.8433C129.13 13.2029 124.912 12.3536 124.643 9.65575C124.374 6.95787 123.742 4.1753 122.068 2.12813C120.999 0.819996 119.423 -0.145714 117.8 0.0181385C117.251 0.0735765 116.72 0.254212 116.242 0.547744C115.765 0.841276 115.353 1.24081 115.033 1.71913C114.714 2.19745 114.496 2.74332 114.393 3.31956C114.29 3.8958 114.305 4.48887 114.437 5.05839C113.975 4.36214 112.779 4.51303 112.483 5.30499C112.22 6.00904 112.801 6.86184 113.485 6.92413C114.38 8.09977 115.405 9.34744 116.808 9.58459C117.031 9.63916 117.263 9.63902 117.486 9.58419C117.71 9.52936 117.919 9.42126 118.097 9.26807C118.427 8.93112 118.452 8.25748 118.061 8.00568C119.823 8.75019 120.856 10.7766 121.118 12.7741C121.379 14.7716 121.018 16.7926 120.779 18.7933C120.541 20.794 120.438 22.8987 121.176 24.7566C122.047 26.9517 124.053 28.5251 126.243 29.0296C128.433 29.5342 130.764 29.041 132.746 27.93C134.728 26.819 136.381 25.1228 137.731 23.2213C135.405 24.9777 132.188 25.6357 129.653 24.2443Z" fill="#2F2E41"/>
<path id="Vector_42" d="M115.321 18.0114C115.321 18.0114 113.348 10.1781 104.89 8.37009C104.88 8.36675 104.848 8.35322 104.807 8.33296C104.782 8.31605 104.75 8.29914 104.718 8.28226C104.814 8.22479 104.906 8.17413 105.001 8.1234C105.001 8.1234 105.002 8.12332 105.002 8.12315C105.003 8.12299 105.003 8.12273 105.003 8.12242C105.004 8.1221 105.004 8.12173 105.004 8.12132C105.004 8.1209 105.004 8.12046 105.004 8.12001C105.087 8.03891 105.169 7.95781 105.255 7.88009L105.497 7.89024C105.497 7.89024 113.983 6.46078 115.321 18.0114Z" fill="#FD6584"/>
<path id="Vector_43" d="M102.099 86.9407C102.264 86.6146 102.361 86.2539 102.381 85.8839C102.401 85.5139 102.345 85.1437 102.216 84.7994C102.087 84.455 101.889 84.1448 101.636 83.8908C101.382 83.6367 101.079 83.4448 100.748 83.3287L100.618 74.3213L96.9811 76.9583L97.6624 85.1077C97.5159 85.7118 97.5829 86.3522 97.8506 86.9074C98.1183 87.4626 98.5682 87.894 99.115 88.12C99.6619 88.3459 100.268 88.3507 100.818 88.1333C101.367 87.916 101.823 87.4916 102.099 86.9407V86.9407Z" fill="#9E616A"/>
<path id="Vector_44" d="M107.919 26.3456L104.589 29.6574C100.778 29.6574 103 31.5874 100.744 34.855C99.4966 36.662 98.7198 38.7871 98.492 41.0158L96.0728 49.0505L93.7352 75.654L96.5404 76.3999L95.3716 80.1293H103.772L102.618 76.1512L103.897 74.7916L102.735 66.0817L106.709 66.8276C106.709 66.8276 120.659 37.6583 107.919 26.3456Z" fill="#2F2E41"/>
<path id="Vector_45" d="M103.901 54.002L99.2997 87.4164L124.414 85.4031L116.897 52.5314L103.901 54.002Z" fill="#FFB8B8"/>
<path id="Vector_46" d="M107.401 154.669H104.58L103.238 143.096L107.401 143.096L107.401 154.669Z" fill="#9E616A"/>
<path id="Vector_47" d="M108.356 153.188L107.4 153.129L104.377 152.936L103.898 152.905V154.939L99.6573 158.052C99.4475 158.206 99.2895 158.427 99.2062 158.683C99.1229 158.939 99.1187 159.216 99.1943 159.475C99.2699 159.733 99.4213 159.959 99.6263 160.12C99.8313 160.28 100.079 160.367 100.334 160.367H105.645L106.558 158.356L106.918 160.367H108.918L108.356 153.188Z" fill="#2F2E41"/>
<path id="Vector_48" d="M134.064 153.177L131.307 153.813L127.688 142.805L131.757 141.866L134.064 153.177Z" fill="#9E616A"/>
<path id="Vector_49" d="M134.703 151.514L133.758 151.67L130.766 152.166L130.287 152.245L130.692 154.231L127.171 158.228C126.997 158.426 126.886 158.677 126.856 158.946C126.826 159.215 126.878 159.487 127.003 159.723C127.129 159.959 127.322 160.145 127.554 160.256C127.786 160.367 128.046 160.396 128.295 160.339L133.483 159.14L133.976 156.97L134.727 158.854L136.682 158.401L134.703 151.514Z" fill="#2F2E41"/>
<path id="Vector_50" d="M98.6586 102.972C100.638 114.545 100.027 107.189 100.027 107.189C100.027 107.189 98.5425 109.03 99.5324 110.083C100.522 111.136 99.5324 113.239 99.5324 113.239L103.071 143.852L103.624 146.499H107.495L107.772 142.97L109.539 125.856C109.539 125.856 110.529 123.75 110.034 123.224C109.539 122.697 110.529 119.541 110.529 119.541L111.765 94.5545L116.392 109.851C116.392 109.851 115.648 110.904 116.392 111.692C117.133 112.48 121.656 128.485 121.656 128.485L127.128 142.382L127.404 142.676L128.787 146.499L132.382 144.734L130.248 125.141L130.159 124.721L130.065 124.277C130.065 124.277 130.56 122.962 129.819 122.171C129.602 121.93 129.444 121.636 129.358 121.315C129.272 120.994 129.26 120.656 129.324 120.33C129.348 120.302 129.371 120.273 129.391 120.241C129.478 120.114 129.538 119.967 129.568 119.812C129.634 119.483 129.576 119.021 129.075 118.489C128.934 118.329 128.816 118.149 128.724 117.953C127.972 116.439 127.593 113.23 127.593 113.23C127.593 113.23 126.924 87.8166 124.734 83.9344C124.618 83.7315 121.441 69.7662 121.319 69.6868C118.847 68.1104 101.216 72.4218 101.216 72.4218C101.216 72.4218 98.1332 83.6903 98.0807 84.0373C97.7958 85.9872 96.9801 93.1545 98.6586 102.972Z" fill="#2F2E41"/>
<path id="Vector_51" d="M121.855 42.5964C121.836 42.4491 121.815 42.3017 121.793 42.1544C121.578 40.6785 122.475 39.4151 121.314 38.3952C121.042 38.1597 120.82 37.8651 120.664 37.5312L120.398 36.9618L119.908 35.9051L118.65 33.2111C118.44 32.7602 118.112 32.3835 117.705 32.1261L115.041 30.4377C114.63 30.1777 114.299 29.7957 114.088 29.3386L114.021 29.1941C113.728 28.5539 113.201 27.0185 112.578 26.3527C112.442 26.1881 112.258 26.0772 112.056 26.0383L109.403 25.7578C108.979 25.7124 108.551 25.7849 108.161 25.9681C107.771 26.1514 107.433 26.4391 107.179 26.8032L107.107 27.1544L106.681 29.2168L106.657 29.2224C106.532 29.2536 106.406 29.2847 106.281 29.3216C103.533 30.1204 102.385 40.3471 102.385 40.3471C102.385 40.3471 100.459 43.7267 101.215 45.8173L102.566 49.1913C102.577 49.2167 102.585 49.2433 102.59 49.2706C102.712 49.6371 102.755 50.0284 102.715 50.4151L102.718 50.5482L102.84 59.7862L102.851 60.4887L100.627 70.7833C100.59 71.1215 100.617 71.4639 100.705 71.791C100.794 72.1181 100.941 72.4236 101.141 72.6898C101.191 72.7578 101.245 72.823 101.301 72.8853C101.354 72.942 101.407 72.9958 101.463 73.0468C101.731 73.296 102.047 73.4799 102.389 73.5856C102.731 73.6913 103.09 73.7162 103.442 73.6587L103.74 73.6105L108.052 72.9221L108.556 72.8428L113.379 72.0723L114.208 71.9391C114.274 71.9306 114.338 71.9221 114.405 71.9165L118.821 71.5935C118.923 71.5853 119.024 71.5711 119.124 71.551C119.513 71.47 119.877 71.2904 120.187 71.0276C120.496 70.7647 120.741 70.4263 120.901 70.0411C120.968 69.8869 121.019 69.7254 121.053 69.5595C121.091 69.38 121.111 69.1968 121.114 69.0128L121.165 64.5879L121.332 50.2904C121.336 49.8131 121.464 49.3462 121.703 48.942C122.374 47.8032 122.225 45.2394 121.855 42.5964Z" fill="#6C63FF"/>
<path id="Vector_52" d="M114.542 81.4731C114.48 81.1084 114.494 80.7337 114.582 80.3753C114.671 80.017 114.833 79.6836 115.056 79.3989C115.279 79.1141 115.558 78.8848 115.873 78.7271C116.188 78.5694 116.532 78.4872 116.881 78.4862L119.636 69.9676L122.322 73.6758L119.294 81.1967C119.257 81.8194 119.006 82.406 118.589 82.8452C118.173 83.2844 117.619 83.5458 117.033 83.5799C116.448 83.614 115.87 83.4183 115.411 83.03C114.952 82.6417 114.643 82.0877 114.542 81.4731V81.4731Z" fill="#9E616A"/>
<path id="Vector_53" d="M111.773 26.2172C114.786 26.2172 118.424 32.4264 120.208 35.0097L120.959 36.0981C122.207 37.9051 122.983 40.0303 123.211 42.2589L124.032 50.2937V52.363L125.055 63.5499L124.435 65.2115L123.57 75.4807C123.213 75.5758 122.877 75.7486 122.585 75.9883C122.293 76.2279 122.05 76.5291 121.873 76.8731C121.695 77.2171 121.586 77.5964 121.553 77.9872C121.52 78.378 121.563 78.7719 121.68 79.1441L121.934 79.956L113.267 77.1232L113.888 74.9824C114.049 74.4278 114.065 73.8371 113.933 73.2737C113.802 72.7104 113.529 72.1958 113.143 71.7854V71.7854L113.512 68.8385L108.118 73.1945C108.118 73.1945 99.0332 37.5299 111.773 26.2172Z" fill="#2F2E41"/>
<path id="Vector_54" d="M114.61 18.3244C114.61 18.2314 114.589 18.1398 114.548 18.0577C114.506 17.9755 114.447 17.9054 114.374 17.8536C114.302 17.8017 114.218 17.7696 114.131 17.7602C114.044 17.7507 113.956 17.7642 113.875 17.7995C113.795 17.8347 113.723 17.8906 113.667 17.9622C113.611 18.0338 113.573 18.1189 113.555 18.2101C113.538 18.3012 113.542 18.3955 113.566 18.4847C113.591 18.5739 113.636 18.6552 113.698 18.7215L112.721 20.2301C112.681 20.2919 112.665 20.3682 112.678 20.4421C112.691 20.516 112.731 20.5814 112.789 20.6241C112.847 20.6667 112.919 20.683 112.988 20.6694C113.058 20.6557 113.119 20.6133 113.16 20.5515L114.258 18.8552C114.361 18.816 114.45 18.744 114.513 18.649C114.576 18.554 114.61 18.4407 114.61 18.3244V18.3244Z" fill="white"/>
<path id="Vector_55" d="M114.193 18.8581C114.229 18.7904 114.208 18.7037 114.144 18.6646C114.08 18.6255 113.999 18.6487 113.962 18.7165L113.696 19.2071C113.659 19.2749 113.681 19.3615 113.744 19.4006C113.808 19.4397 113.889 19.4165 113.926 19.3488L114.193 18.8581Z" fill="#2F2E41"/>
</g>
</g>
</svg>
